  
<svg
	xmlns="http://www.w3.org/2000/svg"
	xmlns:xlink="http://www.w3.org/1999/xlink" viewBox="0 0 295.5 217.34">
	<defs>
		<style>.cls-1{fill:#fff;}.cls-1,.cls-2,.cls-4,.cls-8{fill-rule:evenodd;}.cls-3{mask:url("#mask");}.cls-4{fill:#c6f9b4;}.cls-5{mask:url("#mask-2");}.cls-6{mask:url("#mask-3");}.cls-7{mask:url("#mask-4");}.cls-8{fill:#f7cb45;}.cls-9{mask:url("#mask-5");}.cls-10{mask:url("#mask-6");}</style>
		<mask id="mask" x="0" y="0" width="207.06" height="207.06" maskUnits="userSpaceOnUse">
			<g id="path-149-inside-28_170_3366" data-name="path-149-inside-28 170 3366">
				<path class="cls-1" d="M130.22,17.05a16,16,0,0,0-16-16H92.89a16.06,16.06,0,0,0-16,16.05V39.1L61.25,23.51a16,16,0,0,0-22.7,0l-15,15.05a16,16,0,0,0,0,22.69L39.09,76.84h-22a16.06,16.06,0,0,0-16,16v21.28a16.06,16.06,0,0,0,16.05,16h22L23.51,145.81a16,16,0,0,0,0,22.69l15,15.05a16.06,16.06,0,0,0,22.71,0L76.84,168v22a16.06,16.06,0,0,0,16,16.05h21.28a16,16,0,0,0,16-16.05V168l15.59,15.59a16,16,0,0,0,22.69,0l15.05-15.05a16,16,0,0,0,0-22.69L168,130.22h22a16,16,0,0,0,16.05-16V92.89a16,16,0,0,0-16.05-16H168l15.59-15.59a16,16,0,0,0,0-22.69l-15.05-15a16,16,0,0,0-22.69,0L130.22,39.1ZM103.86,137.38A33.85,33.85,0,1,0,70,103.53,33.86,33.86,0,0,0,103.86,137.38Z"/>
			</g>
		</mask>
		<mask id="mask-2" x="13.31" y="0" width="207.06" height="207.06" maskUnits="userSpaceOnUse">
			<g id="path-151-inside-29_170_3366" data-name="path-151-inside-29 170 3366">
				<path class="cls-1" d="M143.53,17.05a16.06,16.06,0,0,0-16-16H106.2a16.06,16.06,0,0,0-16,16.05V39.1L74.56,23.51a16,16,0,0,0-22.7,0l-15,15.05a16.05,16.05,0,0,0,0,22.69L52.4,76.84h-22a16,16,0,0,0-16,16v21.28a16,16,0,0,0,16,16h22L36.81,145.81a16.05,16.05,0,0,0,0,22.69l15,15.05a16,16,0,0,0,22.7,0L90.15,168v22a16.06,16.06,0,0,0,16,16.05h21.28a16.06,16.06,0,0,0,16-16.05V168l15.58,15.59a16,16,0,0,0,22.7,0l15.05-15.05a16,16,0,0,0,0-22.69l-15.59-15.59h22a16,16,0,0,0,16.05-16V92.89a16,16,0,0,0-16.05-16h-22l15.59-15.59a16,16,0,0,0,0-22.69l-15.05-15a16,16,0,0,0-22.7,0L143.53,39.1ZM117.16,137.38a33.85,33.85,0,1,0-33.85-33.85A33.85,33.85,0,0,0,117.16,137.38Z"/>
			</g>
		</mask>
		<mask id="mask-3" x="24.38" y="11.07" width="185.58" height="185.58" maskUnits="userSpaceOnUse">
			<g id="path-153-inside-30_170_3366" data-name="path-153-inside-30 170 3366">
				<path class="cls-1" d="M130.44,12.07a5.35,5.35,0,0,1,5.35,5.35V33.35a72.45,72.45,0,0,1,16.85,6.8L163.78,29a5.35,5.35,0,0,1,7.57,0L191.2,48.86a5.34,5.34,0,0,1,0,7.56L180.28,67.34a72.41,72.41,0,0,1,7.16,17H203.6A5.34,5.34,0,0,1,209,89.72v28.07a5.34,5.34,0,0,1-5.35,5.35H187.49a72.33,72.33,0,0,1-7.1,17l11,11a5.36,5.36,0,0,1,0,7.56l-19.86,19.86a5.34,5.34,0,0,1-7.56,0l-11.1-11.1a72.14,72.14,0,0,1-17,6.9v15.93a5.35,5.35,0,0,1-5.35,5.35H102.36A5.34,5.34,0,0,1,97,190.29V173.94a72.35,72.35,0,0,1-16.36-7L69,178.66a5.35,5.35,0,0,1-7.57,0L41.54,158.81a5.35,5.35,0,0,1,0-7.57l11.91-11.91a72.75,72.75,0,0,1-6.62-16.19H30.73a5.34,5.34,0,0,1-5.35-5.35V89.72a5.34,5.34,0,0,1,5.35-5.35H46.89a71.88,71.88,0,0,1,6.67-16.18L41.69,56.32a5.35,5.35,0,0,1,0-7.57L61.54,28.9a5.35,5.35,0,0,1,7.57,0L80.84,40.63A72.14,72.14,0,0,1,97,33.77V17.42a5.34,5.34,0,0,1,5.35-5.35ZM117.16,152A48.18,48.18,0,1,0,69,103.86,48.17,48.17,0,0,0,117.16,152Z"/>
			</g>
		</mask>
		<mask id="mask-4" x="152.43" y="82.87" width="134.48" height="134.47" maskUnits="userSpaceOnUse">
			<g id="path-155-inside-31_170_3366" data-name="path-155-inside-31 170 3366">
				<path class="cls-1" d="M236.91,89.22a5.35,5.35,0,0,0-5.35-5.35H207.77a5.36,5.36,0,0,0-5.35,5.35v19.26L188.81,94.86a5.35,5.35,0,0,0-7.57,0l-16.82,16.82a5.35,5.35,0,0,0,0,7.57L178,132.86H158.78a5.36,5.36,0,0,0-5.35,5.35V162a5.36,5.36,0,0,0,5.35,5.35H178L164.42,181a5.34,5.34,0,0,0,0,7.56l16.82,16.82a5.35,5.35,0,0,0,7.57,0l13.61-13.62V211a5.36,5.36,0,0,0,5.35,5.35h23.79a5.35,5.35,0,0,0,5.35-5.35V191.73l13.62,13.62a5.35,5.35,0,0,0,7.57,0l16.81-16.82a5.34,5.34,0,0,0,0-7.56l-13.62-13.62h19.26A5.35,5.35,0,0,0,285.9,162V138.21a5.35,5.35,0,0,0-5.35-5.35H261.29l13.62-13.61a5.35,5.35,0,0,0,0-7.57L258.1,94.86a5.35,5.35,0,0,0-7.57,0l-13.62,13.62Zm-17,82.75A21.87,21.87,0,1,0,198,150.11,21.87,21.87,0,0,0,219.88,172Z"/>
			</g>
		</mask>
		<mask id="mask-5" x="161.03" y="82.87" width="134.47" height="134.47" maskUnits="userSpaceOnUse">
			<g id="path-157-inside-32_170_3366" data-name="path-157-inside-32 170 3366">
				<path class="cls-1" d="M245.5,89.22a5.35,5.35,0,0,0-5.35-5.35H216.37A5.36,5.36,0,0,0,211,89.22v19.26L197.4,94.86a5.34,5.34,0,0,0-7.56,0L173,111.68a5.35,5.35,0,0,0,0,7.57l13.61,13.61H167.38a5.35,5.35,0,0,0-5.35,5.35V162a5.35,5.35,0,0,0,5.35,5.35h19.26L173,181a5.34,5.34,0,0,0,0,7.56l16.82,16.82a5.34,5.34,0,0,0,7.56,0L211,191.73V211a5.36,5.36,0,0,0,5.35,5.35h23.78A5.35,5.35,0,0,0,245.5,211V191.73l13.63,13.62a5.34,5.34,0,0,0,7.56,0l16.82-16.82a5.36,5.36,0,0,0,0-7.56l-13.62-13.62h19.26A5.36,5.36,0,0,0,294.5,162V138.21a5.36,5.36,0,0,0-5.35-5.35H269.89l13.62-13.61a5.37,5.37,0,0,0,0-7.57L266.69,94.86a5.34,5.34,0,0,0-7.56,0L245.5,108.48Zm-17,82.75a21.87,21.87,0,1,0-21.87-21.86A21.87,21.87,0,0,0,228.47,172Z"/>
			</g>
		</mask>
		<mask id="mask-6" x="168.18" y="90.02" width="120.6" height="120.6" maskUnits="userSpaceOnUse">
			<g id="path-159-inside-33_170_3366" data-name="path-159-inside-33 170 3366">
				<path class="cls-1" d="M235.16,91a5.36,5.36,0,0,1,5.35,5.35v8.4a46.61,46.61,0,0,1,10.89,4.39l5.85-5.86a5.35,5.35,0,0,1,7.57,0L275,113.45a5.34,5.34,0,0,1,0,7.56l-5.71,5.72a46.73,46.73,0,0,1,4.62,11h8.55a5.35,5.35,0,0,1,5.35,5.35v14.35a5.36,5.36,0,0,1-5.35,5.35h-8.51a47,47,0,0,1-4.59,11l5.74,5.74a5.35,5.35,0,0,1,0,7.57l-10.15,10.14a5.34,5.34,0,0,1-7.56,0l-5.83-5.83a47.11,47.11,0,0,1-11,4.47v8.39a5.35,5.35,0,0,1-5.35,5.35H220.81a5.34,5.34,0,0,1-5.35-5.35v-8.67a46.6,46.6,0,0,1-10.58-4.5l-6.21,6.21a5.34,5.34,0,0,1-7.56,0L181,187.16a5.35,5.35,0,0,1,0-7.57l6.36-6.36A46.94,46.94,0,0,1,183,162.78h-8.51a5.35,5.35,0,0,1-5.35-5.35V143.08a5.34,5.34,0,0,1,5.35-5.35h8.55a46.61,46.61,0,0,1,4.3-10.46l-6.32-6.33a5.34,5.34,0,0,1,0-7.56l10.14-10.15a5.35,5.35,0,0,1,7.57,0l6.23,6.24A46.78,46.78,0,0,1,215.46,105V96.37A5.35,5.35,0,0,1,220.81,91Zm-6.69,90.41a31.12,31.12,0,1,0-31.12-31.11A31.11,31.11,0,0,0,228.47,181.43Z"/>
			</g>
		</mask>
	</defs>





	<g id="Layer_2" data-name="Layer 2">
		<g id="Layer_1-2" data-name="Layer 1">


<g id="cog-1" class="cog cog--1">

			<path class="cls-4" d="M143.53,17.05a16.06,16.06,0,0,0-16-16H106.2a16.06,16.06,0,0,0-16,16.05V39.1L74.56,23.51a16,16,0,0,0-22.7,0l-15,15.05a16.05,16.05,0,0,0,0,22.69L52.4,76.84h-22a16,16,0,0,0-16,16v21.28a16,16,0,0,0,16,16h22L36.81,145.81a16.05,16.05,0,0,0,0,22.69l15,15.05a16,16,0,0,0,22.7,0L90.15,168v22a16.06,16.06,0,0,0,16,16.05h21.28a16.06,16.06,0,0,0,16-16.05V168l15.58,15.59a16,16,0,0,0,22.7,0l15.05-15.05a16,16,0,0,0,0-22.69l-15.59-15.59h22a16,16,0,0,0,16.05-16V92.89a16,16,0,0,0-16.05-16h-22l15.59-15.59a16,16,0,0,0,0-22.69l-15.05-15a16,16,0,0,0-22.7,0L143.53,39.1ZM117.16,137.38a33.85,33.85,0,1,0-33.85-33.85A33.85,33.85,0,0,0,117.16,137.38Z"/>
			<g class="cls-5">
				<path d="M127.48,1V2h0ZM106.2,1V1Zm-16,38.1-.71.71,1.71,1.71V39.1ZM74.56,23.51l.71-.71h0Zm-22.7,0-.71-.71h0Zm-15,15.05-.7-.71h0Zm0,22.69-.7.71h0ZM52.4,76.84v1h2.42l-1.71-1.71Zm0,53.38.71.71,1.71-1.71H52.4ZM36.81,145.81l-.7-.71h0Zm0,22.69-.7.71h0Zm15,15.05.71-.71h0Zm22.7,0-.71-.71h0ZM90.15,168h1v-2.42l-1.71,1.71Zm0,22h0Zm53.38-22,.71-.71-1.72-1.71V168Zm15.58,15.59.71-.71h0Zm22.7,0,.71.71h0Zm15.05-15.05-.71-.71h0Zm-15.59-38.28v-1h-2.42l1.71,1.71Zm0-53.38-.71-.71-1.71,1.71h2.42Zm15.59-15.59-.71-.71h0Zm0-22.69.71-.71h0Zm-15.05-15,.71-.71h0Zm-22.7,0-.7-.71h0ZM143.53,39.1h-1v2.42l1.72-1.71ZM127.48,2a15,15,0,0,1,15,15h2a17.06,17.06,0,0,0-17-17ZM106.2,2h21.28V0H106.2Zm-15,15a15,15,0,0,1,15-15V0A17.06,17.06,0,0,0,89.14,17.05Zm0,22.05v-22h-2V39.1ZM73.85,24.22,89.44,39.81l1.42-1.42L75.27,22.8Zm-21.28,0a15,15,0,0,1,21.28,0l1.42-1.42a17.06,17.06,0,0,0-24.12,0Zm-15,15.05,15-15.05L51.15,22.8l-15,15.05Zm0,21.27a15,15,0,0,1,0-21.27l-1.41-1.42a17,17,0,0,0,0,24.11ZM53.11,76.13,37.52,60.54,36.11,62,51.69,77.55ZM30.36,77.84h22v-2h-22Zm-15,15a15.05,15.05,0,0,1,15.05-15v-2a17.05,17.05,0,0,0-17,17Zm0,21.28V92.89h-2v21.28Zm15.05,15a15.05,15.05,0,0,1-15-15h-2a17.05,17.05,0,0,0,17,17Zm22,0h-22v2h22ZM37.52,146.51l15.59-15.58-1.42-1.42L36.11,145.1Zm0,21.28a15.06,15.06,0,0,1,0-21.28l-1.41-1.41a17,17,0,0,0,0,24.11Zm15,15.05-15-15.05-1.41,1.42,15,15Zm21.28,0a15,15,0,0,1-21.28,0l-1.42,1.42a17.06,17.06,0,0,0,24.12,0Zm15.59-15.59L73.85,182.84l1.42,1.42,15.59-15.59ZM91.15,190V168h-2v22Zm15,15a15,15,0,0,1-15-15h-2a17.06,17.06,0,0,0,17.06,17.05Zm21.28,0H106.2v2h21.28Zm15-15a15,15,0,0,1-15,15v2a17.06,17.06,0,0,0,17-17.05Zm0-22v22h2V168Zm17.3,14.88-15.58-15.59-1.42,1.42,15.59,15.59Zm21.28,0a15,15,0,0,1-21.28,0l-1.41,1.42a17,17,0,0,0,24.11,0Zm15.05-15.05L181.1,182.84l1.42,1.42,15-15Zm0-21.28a15.06,15.06,0,0,1,0,21.28l1.42,1.42a17,17,0,0,0,0-24.11Zm-15.59-15.58,15.59,15.58,1.42-1.41L182,129.51Zm22.75-1.71h-22v2h22Zm15.05-15a15.05,15.05,0,0,1-15.05,15v2a17.05,17.05,0,0,0,17.06-17Zm0-21.28v21.28h2V92.89Zm-15.05-15a15.05,15.05,0,0,1,15.05,15h2a17.05,17.05,0,0,0-17.06-17Zm-22,0h22v-2h-22Zm14.88-17.3L180.56,76.13,182,77.55,197.57,62Zm0-21.27a15,15,0,0,1,0,21.27L197.57,62a17,17,0,0,0,0-24.11ZM181.1,24.22l15.05,15.05,1.42-1.42-15-15Zm-21.28,0a15,15,0,0,1,21.28,0l1.42-1.42a17,17,0,0,0-24.11,0ZM144.24,39.81l15.58-15.59-1.41-1.42L142.82,38.39Zm-1.72-22.76V39.1h2v-22ZM150,103.53a32.85,32.85,0,0,1-32.85,32.85v2A34.85,34.85,0,0,0,152,103.53ZM117.16,70.68A32.85,32.85,0,0,1,150,103.53h2a34.85,34.85,0,0,0-34.85-34.85ZM84.32,103.53a32.84,32.84,0,0,1,32.84-32.85v-2a34.85,34.85,0,0,0-34.85,34.85Zm32.84,32.85a32.84,32.84,0,0,1-32.84-32.85h-2a34.85,34.85,0,0,0,34.85,34.85Z"/>
			</g>
    	<path class="cls-4" d="M130.44,12.07a5.35,5.35,0,0,1,5.35,5.35V33.35a72.45,72.45,0,0,1,16.85,6.8L163.78,29a5.35,5.35,0,0,1,7.57,0L191.2,48.86a5.34,5.34,0,0,1,0,7.56L180.28,67.34a72.41,72.41,0,0,1,7.16,17H203.6A5.34,5.34,0,0,1,209,89.72v28.07a5.34,5.34,0,0,1-5.35,5.35H187.49a72.33,72.33,0,0,1-7.1,17l11,11a5.36,5.36,0,0,1,0,7.56l-19.86,19.86a5.34,5.34,0,0,1-7.56,0l-11.1-11.1a72.14,72.14,0,0,1-17,6.9v15.93a5.35,5.35,0,0,1-5.35,5.35H102.36A5.34,5.34,0,0,1,97,190.29V173.94a72.35,72.35,0,0,1-16.36-7L69,178.66a5.35,5.35,0,0,1-7.57,0L41.54,158.81a5.35,5.35,0,0,1,0-7.57l11.91-11.91a72.75,72.75,0,0,1-6.62-16.19H30.73a5.34,5.34,0,0,1-5.35-5.35V89.72a5.34,5.34,0,0,1,5.35-5.35H46.89a71.88,71.88,0,0,1,6.67-16.18L41.69,56.32a5.35,5.35,0,0,1,0-7.57L61.54,28.9a5.35,5.35,0,0,1,7.57,0L80.84,40.63A72.14,72.14,0,0,1,97,33.77V17.42a5.34,5.34,0,0,1,5.35-5.35ZM117.16,152A48.18,48.18,0,1,0,69,103.86,48.17,48.17,0,0,0,117.16,152Z"/>
			<g class="cls-6">
				<path d="M130.44,12.07v-1h0Zm5.35,21.28h-1v.77l.74.2Zm16.85,6.8-.49.87.67.37.53-.53ZM163.78,29l.71.71h0Zm7.57,0-.71.71h0ZM191.2,48.86l-.71.71h0Zm0,7.56.71.71h0ZM180.28,67.34l-.71-.71-.54.55.38.66Zm7.16,17-1,.27.2.73h.77Zm.05,38.77v-1h-.76l-.2.74Zm-7.1,17-.87-.5-.38.67.54.54Zm-27.56,27.28.71-.71-.54-.54-.66.37Zm-17,6.9-.26-1-.74.2v.77ZM97,173.94h1v-.75l-.72-.21Zm-16.36-7,.5-.86-.67-.39-.54.55ZM61.39,178.66l-.71.71h0ZM41.54,158.81l.71-.71h0Zm0-7.57.71.71h0Zm11.91-11.91.71.71.54-.53-.37-.67Zm-6.62-16.19,1-.26-.2-.74h-.77Zm.06-38.77v1h.76l.21-.73Zm6.67-16.18.88.49.37-.66-.54-.54ZM41.69,56.32l.71-.71h0Zm0-7.57.71.71h0ZM61.54,28.9l-.7-.71h0Zm7.57,0,.71-.71h0ZM80.84,40.63l-.71.71.54.54.67-.38ZM97,33.77l.28,1,.72-.21v-.75Zm5.35-21.7v1h0Zm34.43,5.35a6.35,6.35,0,0,0-6.35-6.35v2a4.35,4.35,0,0,1,4.35,4.35Zm0,15.93V17.42h-2V33.35Zm16.34,5.92A73.35,73.35,0,0,0,136,32.38l-.51,1.94A71.16,71.16,0,0,1,152.15,41Zm9.94-11L151.93,39.44l1.42,1.42,11.14-11.14Zm9,0a6.36,6.36,0,0,0-9,0l1.42,1.42a4.35,4.35,0,0,1,6.15,0Zm19.85,19.85L172.06,28.3l-1.42,1.42,19.85,19.85Zm0,9a6.35,6.35,0,0,0,0-9l-1.42,1.42a4.36,4.36,0,0,1,0,6.15ZM181,68.05l10.92-10.92-1.42-1.41L179.57,66.63Zm7.42,16a73.78,73.78,0,0,0-7.26-17.26l-1.74,1a71.06,71.06,0,0,1,7.06,16.8Zm15.19-.74H187.44v2H203.6ZM210,89.72a6.35,6.35,0,0,0-6.35-6.36v2A4.35,4.35,0,0,1,208,89.72Zm0,28.07V89.72h-2v28.07Zm-6.35,6.36a6.35,6.35,0,0,0,6.35-6.36h-2a4.35,4.35,0,0,1-4.35,4.35Zm-16.11,0H203.6v-2H187.49Zm-6.23,16.53a73.44,73.44,0,0,0,7.2-17.27l-1.93-.53a71.51,71.51,0,0,1-7,16.8Zm10.8,9.75-11-11-1.42,1.42,11,11Zm0,9a6.35,6.35,0,0,0,0-9l-1.42,1.42a4.33,4.33,0,0,1,0,6.14ZM172.2,179.27l19.86-19.86L190.64,158l-19.86,19.86Zm-9,0a6.35,6.35,0,0,0,9,0l-1.42-1.42a4.35,4.35,0,0,1-6.14,0Zm-11.1-11.1,11.1,11.1,1.42-1.42-11.1-11.1ZM136,175.33a73.16,73.16,0,0,0,17.28-7l-1-1.75a71.4,71.4,0,0,1-16.81,6.81Zm.75,15V174.36h-2v15.93Zm-6.35,6.35a6.35,6.35,0,0,0,6.35-6.35h-2a4.35,4.35,0,0,1-4.35,4.35Zm-28.08,0h28.08v-2H102.36ZM96,190.29a6.35,6.35,0,0,0,6.35,6.35v-2A4.35,4.35,0,0,1,98,190.29Zm0-16.35v16.35h2V173.94Zm-15.87-6.1a73.93,73.93,0,0,0,16.59,7.07l.56-1.93a71.55,71.55,0,0,1-16.14-6.87ZM69.67,179.37l11.69-11.69-1.42-1.41L68.25,178Zm-9,0a6.36,6.36,0,0,0,9,0L68.25,178a4.35,4.35,0,0,1-6.15,0ZM40.83,159.52l19.85,19.85L62.1,178,42.25,158.1Zm0-9a6.36,6.36,0,0,0,0,9l1.42-1.42a4.35,4.35,0,0,1,0-6.15Zm11.91-11.91L40.83,150.53,42.25,152,54.16,140Zm-6.87-15.21a73,73,0,0,0,6.71,16.41l1.75-1a71.37,71.37,0,0,1-6.53-16Zm-15.14.74h16.1v-2H30.73Zm-6.35-6.36a6.35,6.35,0,0,0,6.35,6.36v-2a4.35,4.35,0,0,1-4.35-4.35Zm0-28.07v28.07h2V89.72Zm6.35-6.36a6.35,6.35,0,0,0-6.35,6.36h2a4.35,4.35,0,0,1,4.35-4.35Zm16.16,0H30.73v2H46.89ZM52.68,67.7a73.83,73.83,0,0,0-6.76,16.4l1.94.54a70.58,70.58,0,0,1,6.58-16ZM41,57,52.85,68.9l1.42-1.42L42.4,55.61Zm0-9a6.36,6.36,0,0,0,0,9l1.42-1.42a4.35,4.35,0,0,1,0-6.15ZM60.84,28.19,41,48l1.42,1.42L62.25,29.61Zm9,0a6.35,6.35,0,0,0-9,0l1.41,1.42a4.35,4.35,0,0,1,6.15,0ZM81.55,39.92,69.82,28.19,68.4,29.61,80.13,41.34ZM96.73,32.8a73.93,73.93,0,0,0-16.39,7l1,1.74a71.31,71.31,0,0,1,16-6.77ZM96,17.42V33.77h2V17.42Zm6.35-6.35A6.35,6.35,0,0,0,96,17.42h2a4.35,4.35,0,0,1,4.35-4.35Zm28.08,0H102.36v2h28.08Zm33.89,92.79A47.16,47.16,0,0,1,117.16,151v2a49.18,49.18,0,0,0,49.18-49.17ZM117.16,56.69a47.17,47.17,0,0,1,47.17,47.17h2a49.18,49.18,0,0,0-49.18-49.18ZM70,103.86a47.16,47.16,0,0,1,47.16-47.17v-2A49.18,49.18,0,0,0,68,103.86ZM117.16,151A47.15,47.15,0,0,1,70,103.86H68A49.18,49.18,0,0,0,117.16,153Z"/>
			</g>
</g>
<g id="cog-2" class="cog cog--2">


			<path class="cls-8" d="M245.5,89.22a5.35,5.35,0,0,0-5.35-5.35H216.37A5.36,5.36,0,0,0,211,89.22v19.26L197.4,94.86a5.34,5.34,0,0,0-7.56,0L173,111.68a5.35,5.35,0,0,0,0,7.57l13.61,13.61H167.38a5.35,5.35,0,0,0-5.35,5.35V162a5.35,5.35,0,0,0,5.35,5.35h19.26L173,181a5.34,5.34,0,0,0,0,7.56l16.82,16.82a5.34,5.34,0,0,0,7.56,0L211,191.73V211a5.36,5.36,0,0,0,5.35,5.35h23.78A5.35,5.35,0,0,0,245.5,211V191.73l13.63,13.62a5.34,5.34,0,0,0,7.56,0l16.82-16.82a5.36,5.36,0,0,0,0-7.56l-13.62-13.62h19.26A5.36,5.36,0,0,0,294.5,162V138.21a5.36,5.36,0,0,0-5.35-5.35H269.89l13.62-13.61a5.37,5.37,0,0,0,0-7.57L266.69,94.86a5.34,5.34,0,0,0-7.56,0L245.5,108.48Zm-17,82.75a21.87,21.87,0,1,0-21.87-21.86A21.87,21.87,0,0,0,228.47,172Z"/>
			<g class="cls-9">
				<path d="M240.15,83.87v-1h0Zm-23.78,0v0ZM211,108.48l-.71.71L212,110.9v-2.42ZM197.4,94.86l.71-.71h0Zm-7.56,0,.71.71h0ZM173,111.68l.71.71h0Zm0,7.57-.71.71h0Zm13.61,13.61v1h2.43l-1.71-1.72Zm0,34.49.71.71,1.71-1.72h-2.42ZM173,181l.71.7h0Zm0,7.56-.71.71h0Zm16.82,16.82.71-.71h0Zm7.56,0,.71.71h0ZM211,191.73h1v-2.42L210.31,191Zm5.35,24.61v1h0Zm23.78,0v-1h0Zm5.35-24.61.71-.71-1.71-1.71v2.42Zm38-10.76-.71.7h0Zm-13.62-13.62v-1h-2.42l1.71,1.72Zm0-34.49-.71-.71-1.71,1.72h2.42Zm13.62-13.61.71.71h0Zm0-7.57-.71.71h0ZM266.69,94.86l-.71.71h0Zm-7.56,0,.7.71h0ZM245.5,108.48h-1v2.42l1.71-1.71Zm-5.35-23.61a4.35,4.35,0,0,1,4.35,4.35h2a6.35,6.35,0,0,0-6.36-6.35Zm-23.78,0h23.78v-2H216.37ZM212,89.22a4.34,4.34,0,0,1,4.34-4.35v-2A6.35,6.35,0,0,0,210,89.22Zm0,19.26V89.22h-2v19.26ZM196.69,95.57l13.62,13.62,1.42-1.42L198.11,94.15Zm-6.14,0a4.33,4.33,0,0,1,6.14,0l1.42-1.42a6.35,6.35,0,0,0-9,0Zm-16.82,16.82,16.82-16.82-1.42-1.42L172.31,111Zm0,6.15a4.35,4.35,0,0,1,0-6.15L172.31,111a6.36,6.36,0,0,0,0,9Zm13.62,13.61-13.62-13.61L172.31,120l13.61,13.61Zm-20,1.72h19.25v-2H167.38ZM163,138.21a4.34,4.34,0,0,1,4.35-4.34v-2a6.35,6.35,0,0,0-6.35,6.35ZM163,162V138.21h-2V162Zm4.35,4.34A4.34,4.34,0,0,1,163,162h-2a6.35,6.35,0,0,0,6.35,6.35Zm19.26,0H167.38v2h19.26Zm-12.91,15.33,13.62-13.61-1.43-1.42-13.61,13.62Zm0,6.15a4.35,4.35,0,0,1,0-6.15l-1.42-1.41a6.35,6.35,0,0,0,0,9Zm16.82,16.82-16.82-16.82-1.42,1.42,16.82,16.82Zm6.14,0a4.33,4.33,0,0,1-6.14,0l-1.42,1.42a6.35,6.35,0,0,0,9,0ZM210.31,191l-13.62,13.62,1.42,1.42,13.62-13.62ZM212,211V191.73h-2V211Zm4.34,4.35A4.34,4.34,0,0,1,212,211h-2a6.35,6.35,0,0,0,6.35,6.35Zm23.78,0H216.37v2h23.78ZM244.5,211a4.35,4.35,0,0,1-4.35,4.35v2a6.35,6.35,0,0,0,6.36-6.35Zm0-19.26V211h2V191.73Zm15.33,12.91L246.21,191l-1.42,1.42,13.62,13.62Zm6.15,0a4.35,4.35,0,0,1-6.15,0l-1.42,1.42a6.36,6.36,0,0,0,9,0Zm16.82-16.82L266,204.64l1.42,1.42,16.82-16.82Zm0-6.15a4.36,4.36,0,0,1,0,6.15l1.42,1.42a6.35,6.35,0,0,0,0-9Zm-13.62-13.61,13.62,13.61,1.42-1.41-13.63-13.62Zm20-1.72H269.89v2h19.26Zm4.34-4.34a4.34,4.34,0,0,1-4.34,4.34v2A6.35,6.35,0,0,0,295.5,162Zm0-23.79V162h2V138.21Zm-4.34-4.34a4.34,4.34,0,0,1,4.34,4.34h2a6.35,6.35,0,0,0-6.35-6.35Zm-19.26,0h19.26v-2H269.89Zm12.91-15.33-13.62,13.61,1.41,1.42L284.22,120Zm0-6.15a4.36,4.36,0,0,1,0,6.15l1.42,1.42a6.36,6.36,0,0,0,0-9ZM266,95.57l16.82,16.82,1.42-1.42L267.4,94.15Zm-6.15,0a4.35,4.35,0,0,1,6.15,0l1.42-1.42a6.36,6.36,0,0,0-9,0Zm-13.62,13.62,13.62-13.62-1.42-1.42-13.62,13.62Zm-1.71-20v19.26h2V89.22Zm4.84,60.89A20.87,20.87,0,0,1,228.47,171v2a22.87,22.87,0,0,0,22.87-22.87Zm-20.87-20.87a20.87,20.87,0,0,1,20.87,20.87h2a22.87,22.87,0,0,0-22.87-22.88Zm-20.86,20.87a20.86,20.86,0,0,1,20.86-20.87v-2a22.87,22.87,0,0,0-22.87,22.88ZM228.47,171a20.86,20.86,0,0,1-20.86-20.86h-2A22.87,22.87,0,0,0,228.47,173Z"/>
			</g>
			<path class="cls-8" d="M235.16,91a5.36,5.36,0,0,1,5.35,5.35v8.4a46.61,46.61,0,0,1,10.89,4.39l5.85-5.86a5.35,5.35,0,0,1,7.57,0L275,113.45a5.34,5.34,0,0,1,0,7.56l-5.71,5.72a46.73,46.73,0,0,1,4.62,11h8.55a5.35,5.35,0,0,1,5.35,5.35v14.35a5.36,5.36,0,0,1-5.35,5.35h-8.51a47,47,0,0,1-4.59,11l5.74,5.74a5.35,5.35,0,0,1,0,7.57l-10.15,10.14a5.34,5.34,0,0,1-7.56,0l-5.83-5.83a47.11,47.11,0,0,1-11,4.47v8.39a5.35,5.35,0,0,1-5.35,5.35H220.81a5.34,5.34,0,0,1-5.35-5.35v-8.67a46.6,46.6,0,0,1-10.58-4.5l-6.21,6.21a5.34,5.34,0,0,1-7.56,0L181,187.16a5.35,5.35,0,0,1,0-7.57l6.36-6.36A46.94,46.94,0,0,1,183,162.78h-8.51a5.35,5.35,0,0,1-5.35-5.35V143.08a5.34,5.34,0,0,1,5.35-5.35h8.55a46.61,46.61,0,0,1,4.3-10.46l-6.32-6.33a5.34,5.34,0,0,1,0-7.56l10.14-10.15a5.35,5.35,0,0,1,7.57,0l6.23,6.24A46.78,46.78,0,0,1,215.46,105V96.37A5.35,5.35,0,0,1,220.81,91Zm-6.69,90.41a31.12,31.12,0,1,0-31.12-31.11A31.11,31.11,0,0,0,228.47,181.43Z"/>
			<g class="cls-10">
				<path d="M240.51,104.77h-1v.77l.75.2Zm10.89,4.39-.5.87.66.37.54-.53Zm5.85-5.86-.71-.71h0Zm7.57,0-.71.71h0ZM275,113.45l-.71.71h0Zm0,7.56-.71-.71h0Zm-5.71,5.72-.71-.71-.55.54.39.67Zm4.62,11-1,.26.2.74h.76Zm0,25.05v-1h-.77l-.2.74Zm-4.59,11-.87-.5-.38.67.54.54Zm-12,23.45.71-.7h0Zm-5.83-5.83.7-.71-.53-.53-.66.37Zm-11,4.47-.26-1-.75.2v.78Zm-25-.28h1v-.75l-.73-.21Zm-10.58-4.5.51-.87-.67-.38-.54.54Zm-6.21,6.21.71.71h0Zm-7.56,0,.71-.71h0ZM181,187.16l.71-.71h0Zm0-7.57.71.71h0Zm6.36-6.36.7.71.54-.53-.37-.66ZM183,162.78l1-.27-.2-.74H183Zm0-25.05v1h.76l.2-.74Zm4.3-10.46.88.5.37-.67-.54-.54Zm-6.32-6.33.71-.71h0Zm0-7.56-.71-.71h0Zm10.14-10.15.71.71h0Zm7.57,0,.71-.71h0Zm6.23,6.24-.7.71.54.54.67-.38ZM215.46,105l.27,1,.73-.21V105Zm5.35-14V90h0Zm20.7,5.35A6.35,6.35,0,0,0,235.16,90v2a4.35,4.35,0,0,1,4.34,4.35Zm0,8.4v-8.4h-2v8.4Zm10.37,3.51a47.78,47.78,0,0,0-11.12-4.48l-.51,1.94A45.85,45.85,0,0,1,250.9,110Zm4.66-5.69-5.86,5.86,1.42,1.42L258,104Zm9,0a6.36,6.36,0,0,0-9,0L258,104a4.35,4.35,0,0,1,6.15,0Zm10.14,10.15-10.14-10.15L264.11,104l10.14,10.15Zm0,9a6.35,6.35,0,0,0,0-9l-1.42,1.42a4.33,4.33,0,0,1,0,6.14ZM270,127.44l5.71-5.72-1.42-1.42L268.54,126Zm4.88,10a47.92,47.92,0,0,0-4.72-11.24l-1.74,1A46.1,46.1,0,0,1,272.91,138Zm7.58-.74h-8.55v2h8.55Zm6.35,6.36a6.35,6.35,0,0,0-6.35-6.36v2a4.35,4.35,0,0,1,4.35,4.35Zm0,14.35V143.08h-2v14.35Zm-6.35,6.35a6.35,6.35,0,0,0,6.35-6.35h-2a4.34,4.34,0,0,1-4.35,4.34Zm-8.51,0h8.51v-2h-8.51Zm-3.72,10.5A47.81,47.81,0,0,0,274.87,163l-1.93-.53a45.64,45.64,0,0,1-4.49,10.77Zm5.58,4.53L270,173.07l-1.42,1.42,5.74,5.74Zm0,9a6.36,6.36,0,0,0,0-9l-1.42,1.42a4.35,4.35,0,0,1,0,6.15Zm-10.15,10.14,10.15-10.14-1.42-1.42L264.2,196.53Zm-9,0a6.35,6.35,0,0,0,9,0l-1.42-1.41a4.35,4.35,0,0,1-6.14,0Zm-5.83-5.83,5.83,5.83,1.42-1.41-5.84-5.84Zm-10.05,4.72A47.47,47.47,0,0,0,252,192.28l-1-1.75a46,46,0,0,1-10.78,4.36Zm.75,7.43v-8.39h-2v8.39Zm-6.35,6.35a6.35,6.35,0,0,0,6.35-6.35h-2a4.35,4.35,0,0,1-4.34,4.35Zm-14.35,0h14.35v-2H220.81Zm-6.36-6.35a6.35,6.35,0,0,0,6.36,6.35v-2a4.35,4.35,0,0,1-4.35-4.35Zm0-8.67v8.67h2v-8.67ZM204.38,192a48.11,48.11,0,0,0,10.8,4.6l.55-1.93a45.81,45.81,0,0,1-10.34-4.41Zm-5,6,6.21-6.21-1.41-1.42L198,196.59Zm-9,0a6.35,6.35,0,0,0,9,0L198,196.59a4.33,4.33,0,0,1-6.14,0Zm-10.15-10.14L190.4,198l1.42-1.42-10.15-10.14Zm0-9a6.36,6.36,0,0,0,0,9l1.42-1.42a4.35,4.35,0,0,1,0-6.15Zm6.36-6.36-6.36,6.36,1.42,1.42,6.35-6.36ZM182.07,163a47.66,47.66,0,0,0,4.37,10.68l1.75-1A46.17,46.17,0,0,1,184,162.51Zm-7.54.74H183v-2h-8.51Zm-6.35-6.35a6.35,6.35,0,0,0,6.35,6.35v-2a4.34,4.34,0,0,1-4.35-4.34Zm0-14.35v14.35h2V143.08Zm6.35-6.36a6.35,6.35,0,0,0-6.35,6.36h2a4.35,4.35,0,0,1,4.35-4.35Zm8.55,0h-8.55v2h8.55Zm3.43-9.94a47.93,47.93,0,0,0-4.4,10.68L184,138a46.13,46.13,0,0,1,4.22-10.22Zm-6.16-5.13,6.32,6.33,1.42-1.42-6.32-6.33Zm0-9a6.35,6.35,0,0,0,0,9l1.42-1.42a4.33,4.33,0,0,1,0-6.14Zm10.14-10.15-10.14,10.15,1.42,1.42,10.14-10.15Zm9,0a6.36,6.36,0,0,0-9,0l1.42,1.42a4.35,4.35,0,0,1,6.15,0Zm6.23,6.24-6.23-6.24-1.42,1.42,6.24,6.24Zm9.47-4.69a48.11,48.11,0,0,0-10.68,4.53l1,1.74A45.8,45.8,0,0,1,215.73,106Zm-.73-7.7V105h2V96.37ZM220.81,90a6.35,6.35,0,0,0-6.36,6.35h2A4.35,4.35,0,0,1,220.81,92Zm14.35,0H220.81v2h14.35Zm23.43,60.3a30.11,30.11,0,0,1-30.12,30.11v2a32.13,32.13,0,0,0,32.13-32.12ZM228.47,120.2a30.11,30.11,0,0,1,30.12,30.12h2a32.13,32.13,0,0,0-32.13-32.13Zm-30.11,30.12a30.11,30.11,0,0,1,30.11-30.12v-2a32.13,32.13,0,0,0-32.12,32.13Zm30.11,30.11a30.11,30.11,0,0,1-30.11-30.11h-2a32.13,32.13,0,0,0,32.12,32.12Z"/>
			</g>
</g>




		</g>
	</g>

</svg>
