<svg xmlns="http://www.w3.org/2000/svg" xmlns:xlink="http://www.w3.org/1999/xlink" viewBox="0 0 224.16 256.05"><defs><style>.cls-1{fill:#fff;}.cls-1,.cls-4{fill-rule:evenodd;}.cls-2{fill:#f7cb46;}.cls-3{fill:#c6f9b4;}.cls-5{mask:url(#mask);}.cls-6{fill:#a9a6ff;}</style><mask id="mask" x="34.01" y="18.43" width="174.43" height="183.47" maskUnits="userSpaceOnUse"><g id="path-456-inside-67_170_3366" data-name="path-456-inside-67 170 3366"><path class="cls-1" d="M37.25,48.81a15.88,15.88,0,0,1,5.55-1h9.3a64.2,64.2,0,0,0,33.14-9.21l20.23-12.19a16.06,16.06,0,0,1,16.57,0l20.23,12.19a64.17,64.17,0,0,0,33.13,9.21h9.31a16,16,0,0,1,16,16.64l-3.27,88.8A64.22,64.22,0,0,1,173.4,201a64.17,64.17,0,0,0,30.75-52.46l3.28-88.8a16.05,16.05,0,0,0-16-16.64h-9.3A64.3,64.3,0,0,1,149,33.93L128.72,21.74a16.06,16.06,0,0,0-16.57,0L91.92,33.93a64.26,64.26,0,0,1-33.13,9.21H49.48A16,16,0,0,0,37.25,48.81Z"/></g></mask></defs><g id="Layer_2" data-name="Layer 2"><g id="Layer_1-2" data-name="Layer 1"><path d="M95.74,12.07,67,29.25a64.76,64.76,0,0,1-33.22,9.17H16.05A15.56,15.56,0,0,0,.51,54.55L4.77,169.19a63.74,63.74,0,0,0,33.85,53.94l57.82,30.61a15.56,15.56,0,0,0,14.56,0l57.82-30.61a63.72,63.72,0,0,0,33.85-53.94l4.26-114.64a15.55,15.55,0,0,0-15.54-16.13H173.62a64.76,64.76,0,0,1-33.22-9.17L111.71,12.07A15.56,15.56,0,0,0,95.74,12.07Z"/><path d="M103.72,256.05a16.08,16.08,0,0,1-7.51-1.86L38.38,223.57A64.42,64.42,0,0,1,4.27,169.21L0,54.57a16.06,16.06,0,0,1,16-16.65H33.82a64.22,64.22,0,0,0,33-9.11l28.7-17.17a16,16,0,0,1,16.48,0l28.7,17.17a64.22,64.22,0,0,0,33,9.11h17.77a16.06,16.06,0,0,1,16,16.65l-4.26,114.64a64.42,64.42,0,0,1-34.11,54.36l-57.83,30.62A16.08,16.08,0,0,1,103.72,256.05ZM16.05,38.93A15,15,0,0,0,1,54.53L5.27,169.17a63.39,63.39,0,0,0,33.58,53.51L96.68,253.3a15.05,15.05,0,0,0,14.08,0l57.83-30.62a63.39,63.39,0,0,0,33.58-53.51l4.26-114.64a15,15,0,0,0-15-15.6H173.62a65.28,65.28,0,0,1-33.48-9.25L111.45,12.5A15,15,0,0,0,96,12.5l-.25-.43.25.43L67.3,29.68a65.25,65.25,0,0,1-33.48,9.25Z"/><path class="cls-2" d="M112.45,2.71,83.76,19.88a64.68,64.68,0,0,1-33.23,9.18H32.77A15.55,15.55,0,0,0,17.23,45.19l4.26,114.64a63.69,63.69,0,0,0,33.85,53.93l57.82,30.62a15.54,15.54,0,0,0,14.55,0l57.83-30.62a63.71,63.71,0,0,0,33.85-53.93l4.26-114.64a15.56,15.56,0,0,0-15.54-16.13H190.34a64.67,64.67,0,0,1-33.22-9.18L128.42,2.71A15.56,15.56,0,0,0,112.45,2.71Z"/><path d="M120.44,246.69a16,16,0,0,1-7.51-1.87L55.1,214.21A64.42,64.42,0,0,1,21,159.85L16.73,45.21a16.06,16.06,0,0,1,16-16.65H50.53a64.22,64.22,0,0,0,33-9.11L112.2,2.28a16,16,0,0,1,16.48,0l28.7,17.17a64.19,64.19,0,0,0,33,9.11H208.1a16.06,16.06,0,0,1,16.05,16.65l-4.26,114.64a64.42,64.42,0,0,1-34.11,54.36L128,244.82A16,16,0,0,1,120.44,246.69ZM32.77,29.56a15.05,15.05,0,0,0-15,15.61L22,159.81a63.39,63.39,0,0,0,33.58,53.51l57.83,30.62a15.05,15.05,0,0,0,14.08,0l57.83-30.62a63.39,63.39,0,0,0,33.58-53.51l4.26-114.64A15.05,15.05,0,0,0,208.1,29.56H190.34a65.25,65.25,0,0,1-33.48-9.25L128.17,3.14a15,15,0,0,0-15.46,0l-.26-.43.26.43L84,20.31a65.29,65.29,0,0,1-33.49,9.25Z"/><path class="cls-3" d="M112.41,22.17,92.18,34.36a64.72,64.72,0,0,1-33.39,9.28H49.48A15.54,15.54,0,0,0,34,59.76l3.27,88.8A63.71,63.71,0,0,0,70.9,202.42l42.22,22.52a15.61,15.61,0,0,0,14.64,0L170,202.42a63.7,63.7,0,0,0,33.69-53.86l3.27-88.8a15.54,15.54,0,0,0-15.54-16.12h-9.3a64.78,64.78,0,0,1-33.4-9.28L128.46,22.17A15.52,15.52,0,0,0,112.41,22.17Z"/><path d="M120.44,227.27a16,16,0,0,1-7.55-1.89L70.67,202.86a64.4,64.4,0,0,1-33.95-54.28l-3.27-88.8a16,16,0,0,1,16-16.64h9.31a64.32,64.32,0,0,0,33.14-9.21l20.23-12.19.25.43-.25-.43a16,16,0,0,1,16.56,0L149,33.93a64.32,64.32,0,0,0,33.14,9.21h9.3a16,16,0,0,1,16,16.64l-3.27,88.8a64.4,64.4,0,0,1-33.95,54.28L128,225.38A16,16,0,0,1,120.44,227.27Zm-71-183.13a15.05,15.05,0,0,0-15,15.6l3.27,88.8A63.41,63.41,0,0,0,71.14,202l42.22,22.52a15,15,0,0,0,14.16,0L169.74,202a63.43,63.43,0,0,0,33.42-53.44l3.27-88.8a15.05,15.05,0,0,0-15-15.6h-9.3a65.26,65.26,0,0,1-33.66-9.35L128.21,22.6a15,15,0,0,0-15.54,0L92.44,34.79a65.23,65.23,0,0,1-33.65,9.35Z"/><path class="cls-3" d="M112.41,41.57l-12.19,7.35a64.65,64.65,0,0,1-33.42,9.3H65.53A15.54,15.54,0,0,0,50,74.34l2.31,62.86A63.73,63.73,0,0,0,86,191.05l27.15,14.49a15.55,15.55,0,0,0,14.64,0l27.15-14.49a63.7,63.7,0,0,0,33.65-53.85l2.32-62.86a15.54,15.54,0,0,0-15.54-16.12h-1.26a64.65,64.65,0,0,1-33.42-9.3l-12.19-7.35A15.54,15.54,0,0,0,112.41,41.57Z"/><path d="M120.44,207.88a16.09,16.09,0,0,1-7.56-1.9L85.74,191.49a64.41,64.41,0,0,1-33.93-54.27L49.5,74.36a16,16,0,0,1,16-16.64H66.8A64.2,64.2,0,0,0,100,48.49l12.19-7.35a16,16,0,0,1,16.58,0l12.19,7.35a64.17,64.17,0,0,0,33.16,9.23h1.26a16,16,0,0,1,16,16.64l-2.31,62.86a64.41,64.41,0,0,1-33.93,54.27L128,206A16.09,16.09,0,0,1,120.44,207.88ZM65.53,58.72a15.05,15.05,0,0,0-15,15.6l2.32,62.86A63.38,63.38,0,0,0,86.21,190.6l27.14,14.5a15.09,15.09,0,0,0,14.18,0l27.14-14.5a63.38,63.38,0,0,0,33.39-53.42l2.32-62.86a15.05,15.05,0,0,0-15-15.6h-1.26a65.23,65.23,0,0,1-33.68-9.37L128.21,42a15,15,0,0,0-15.54,0l-12.2,7.35A65.17,65.17,0,0,1,66.8,58.72Z"/><path class="cls-4" d="M37.25,48.81a15.88,15.88,0,0,1,5.55-1h9.3a64.2,64.2,0,0,0,33.14-9.21l20.23-12.19a16.06,16.06,0,0,1,16.57,0l20.23,12.19a64.17,64.17,0,0,0,33.13,9.21h9.31a16,16,0,0,1,16,16.64l-3.27,88.8A64.22,64.22,0,0,1,173.4,201a64.17,64.17,0,0,0,30.75-52.46l3.28-88.8a16.05,16.05,0,0,0-16-16.64h-9.3A64.3,64.3,0,0,1,149,33.93L128.72,21.74a16.06,16.06,0,0,0-16.57,0L91.92,33.93a64.26,64.26,0,0,1-33.13,9.21H49.48A16,16,0,0,0,37.25,48.81Z"/><g class="cls-5"><path d="M37.25,48.81l-.77-.65L34,51.07l3.58-1.32Zm48-10.2-.53-.86h0Zm20.23-12.19.52.86h0Zm16.57,0-.52.86h0Zm20.23,12.19.51-.86h0Zm33.13,9.21v1h0Zm25.34,16.64,1,0h0Zm-3.27,88.8,1,0h0ZM173.4,201l-.62-.78,1.15,1.64Zm30.75-52.46-1,0h0Zm3.28-88.8,1,0h0ZM182.09,43.14v1h0ZM149,33.93l.52-.86h0ZM128.72,21.74l-.52.86h0Zm-16.57,0,.52.86h0ZM91.92,33.93l.52.86h0ZM42.8,46.82a17.18,17.18,0,0,0-5.9,1l.69,1.89a15,15,0,0,1,5.21-.93Zm9.3,0H42.8v2h9.3Zm32.61-9.07A63.17,63.17,0,0,1,52.1,46.82v2a65.2,65.2,0,0,0,33.65-9.35ZM105,25.56,84.71,37.75l1,1.72L106,27.28Zm17.6,0a17.06,17.06,0,0,0-17.6,0l1,1.72a15,15,0,0,1,15.53,0Zm20.23,12.19L122.55,25.56l-1,1.72,20.23,12.19Zm32.62,9.07a63.26,63.26,0,0,1-32.62-9.07l-1,1.72a65.2,65.2,0,0,0,33.65,9.35Zm9.31,0H175.4v2h9.31Zm17,17.68a17.06,17.06,0,0,0-17-17.68v2a15,15,0,0,1,15,15.6Zm-3.28,88.8,3.28-88.8-2-.08-3.27,88.81ZM174,201.83a65.2,65.2,0,0,0,24.44-48.53l-2-.07a63.25,63.25,0,0,1-23.69,47Zm-.1.07a65.22,65.22,0,0,0,31.23-53.28l-2-.07a63.2,63.2,0,0,1-30.28,51.63Zm31.23-53.28,3.27-88.8-2-.08-3.27,88.81Zm3.27-88.8a17,17,0,0,0-17-17.68v2a15.05,15.05,0,0,1,15,15.6Zm-17-17.68h-9.3v2h9.3Zm-9.3,0a63.26,63.26,0,0,1-32.62-9.07l-1,1.72a65.2,65.2,0,0,0,33.65,9.35Zm-32.62-9.07L129.24,20.88l-1,1.72,20.24,12.19ZM129.24,20.88a17,17,0,0,0-17.6,0l1,1.72a15,15,0,0,1,15.53,0Zm-17.6,0L91.4,33.07l1,1.72L112.67,22.6ZM91.4,33.07a63.2,63.2,0,0,1-32.61,9.07v2a65.2,65.2,0,0,0,33.65-9.35ZM58.79,42.14H49.48v2h9.31Zm-9.31,0a17,17,0,0,0-13,6L38,49.45a15,15,0,0,1,11.47-5.31Z"/></g><path d="M63.43,136.56V109.29h0v-.49a50.32,50.32,0,0,1,100.62,0v.49h0v27.27a50.32,50.32,0,0,1-100.64,0Z"/><path d="M113.75,187.28c-27.81,0-50.61-22.75-50.82-50.72V108.78A51,51,0,0,1,78.21,73.45a50.63,50.63,0,0,1,71.08,0,51,51,0,0,1,15.27,35.34l0,1.2v26.57C164.36,164.53,141.56,187.28,113.75,187.28ZM63.93,136.55a49.82,49.82,0,0,0,99.64,0V108.81a49.94,49.94,0,0,0-15-34.64,49.62,49.62,0,0,0-69.68,0,50,50,0,0,0-15,34.64v27.75Z"/><path class="cls-6" d="M70.78,136.56V109.29h0l0-.49c.63-27.41,22.77-49.42,50-49.42s49.35,22,50,49.42v.49h0v27.27c-.21,27.77-22.51,50.21-50,50.21S71,164.33,70.78,136.56Z"/><path d="M120.77,187.28c-27.62,0-50.27-22.75-50.49-50.72l0-27.78A51.09,51.09,0,0,1,85.47,73.45a50.06,50.06,0,0,1,70.61,0,51.14,51.14,0,0,1,15.17,35.34v27.77C171.05,164.53,148.4,187.28,120.77,187.28ZM71.29,136.55c.21,27.42,22.41,49.72,49.48,49.72s49.28-22.3,49.49-49.72V108.81a50.11,50.11,0,0,0-14.88-34.64,49,49,0,0,0-69.2,0A50.1,50.1,0,0,0,71.3,108.81v27.75Z"/><path class="cls-6" d="M78.81,134.31V111.67h0v-.49a42,42,0,0,1,83.9,0l0,.49h0v22.64a42,42,0,0,1-83.93,0Z"/><path d="M120.77,176.58a42.65,42.65,0,0,1-42.46-42.27V111.16a42.46,42.46,0,0,1,84.91,0v23.14A42.65,42.65,0,0,1,120.77,176.58ZM79.31,134.31a41.47,41.47,0,0,0,82.93,0l0-23.12a41.46,41.46,0,0,0-82.9,0v23.12Z"/><path d="M133.24,156a1.3,1.3,0,0,1-.84-.29,1.33,1.33,0,0,1-.2-1.88l1.16-1.44A19.81,19.81,0,0,0,137.75,140v-7.8a1.34,1.34,0,0,1,2.67,0V140a22.54,22.54,0,0,1-5,14.1l-1.16,1.43A1.33,1.33,0,0,1,133.24,156Zm-23.53-.75a19.84,19.84,0,0,1-2.55-.16c-5.81-.71-10.43-3.51-12.68-7.69A26.93,26.93,0,0,1,91,135.73a1.34,1.34,0,1,1,2.68,0,24.77,24.77,0,0,0,3.14,10.44c1.84,3.41,5.72,5.7,10.65,6.31A18.3,18.3,0,0,0,128,134.33V124.05a5,5,0,0,0-1.72-3.77,5,5,0,0,0-8.28,3.77V135.9a7.49,7.49,0,1,1-15,0V124.43a1.34,1.34,0,0,1,2.68,0V135.9a4.81,4.81,0,1,0,9.62,0V124.05a7.68,7.68,0,0,1,15.36,0v10.28a21,21,0,0,1-21,21Zm-16-19.56h0Zm56.17,7.66a1.34,1.34,0,0,1-1.33-1.34V121.27a1.34,1.34,0,1,1,2.67,0v20.78A1.34,1.34,0,0,1,149.86,143.39ZM92.35,127.12A1.34,1.34,0,0,1,91,125.78v-7.39A30.09,30.09,0,0,1,150.27,111a1.34,1.34,0,0,1-2.6.65,27.41,27.41,0,0,0-54,6.74v7.39A1.34,1.34,0,0,1,92.35,127.12Zm46.73-4.06a1.33,1.33,0,0,1-1.33-1.34v-1.14A16.05,16.05,0,0,0,107,114.15l-.39.88a1.33,1.33,0,0,1-2.44-1.08l.38-.88a18.73,18.73,0,0,1,35.88,7.51v1.14A1.34,1.34,0,0,1,139.08,123.06Z"/></g></g></svg>