<svg xmlns="http://www.w3.org/2000/svg" xmlns:xlink="http://www.w3.org/1999/xlink" viewBox="0 0 248.44 214.67"><defs><style>.cls-1,.cls-6{fill:#fff;}.cls-1,.cls-11,.cls-3,.cls-7,.cls-9{fill-rule:evenodd;}.cls-2,.cls-9{fill:#c6f9b4;}.cls-3{fill:#f7cb45;}.cls-4{mask:url(#mask);}.cls-5{fill:#ff08a7;}.cls-8{mask:url(#mask-2);}.cls-10{mask:url(#mask-3);}.cls-11{fill:#ebff00;}.cls-12{mask:url(#mask-4);}.cls-13{fill:#f097eb;}.cls-14{fill:#a9a6ff;}</style><mask id="mask" x="7.69" y="30.09" width="240.75" height="155.15" maskUnits="userSpaceOnUse"><g id="path-1076-inside-157_170_3366" data-name="path-1076-inside-157 170 3366"><path class="cls-1" d="M247.44,168.19a16.06,16.06,0,0,1-16.05,16.05H24.74a16.06,16.06,0,0,1-16-16.05V31.1H247.44Z"/></g></mask><mask id="mask-2" x="75.9" y="62.86" width="148.46" height="148.46" maskUnits="userSpaceOnUse"><g id="path-1081-inside-158_170_3366" data-name="path-1081-inside-158 170 3366"><path class="cls-1" d="M169.19,69.22a5.34,5.34,0,0,0-5.35-5.35H136.42a5.35,5.35,0,0,0-5.35,5.35V91.07L115.61,75.62a5.34,5.34,0,0,0-7.56,0L88.66,95a5.34,5.34,0,0,0,0,7.56L104.11,118H82.26a5.35,5.35,0,0,0-5.35,5.35V150.8a5.34,5.34,0,0,0,5.35,5.35h21.85L88.66,171.61a5.35,5.35,0,0,0,0,7.57l19.39,19.39a5.34,5.34,0,0,0,7.56,0l15.46-15.45V205a5.35,5.35,0,0,0,5.35,5.35h27.42a5.34,5.34,0,0,0,5.35-5.35V183.12l15.46,15.45a5.35,5.35,0,0,0,7.57,0l19.39-19.39a5.35,5.35,0,0,0,0-7.57l-15.45-15.46H218a5.34,5.34,0,0,0,5.35-5.35V123.38A5.35,5.35,0,0,0,218,118H196.16l15.45-15.46a5.34,5.34,0,0,0,0-7.56L192.22,75.62a5.35,5.35,0,0,0-7.57,0L169.19,91.07Zm-18.82,92.05a24.18,24.18,0,1,0-24.18-24.18A24.17,24.17,0,0,0,150.37,161.27Z"/></g></mask><mask id="mask-3" x="85.41" y="62.86" width="148.46" height="148.46" maskUnits="userSpaceOnUse"><g id="path-1083-inside-159_170_3366" data-name="path-1083-inside-159 170 3366"><path class="cls-1" d="M178.7,69.22a5.34,5.34,0,0,0-5.35-5.35H145.93a5.34,5.34,0,0,0-5.35,5.35V91.07L125.12,75.62a5.35,5.35,0,0,0-7.57,0L98.17,95a5.32,5.32,0,0,0,0,7.56L113.62,118H91.76a5.35,5.35,0,0,0-5.35,5.35V150.8a5.34,5.34,0,0,0,5.35,5.35h21.86L98.17,171.61a5.34,5.34,0,0,0,0,7.57l19.38,19.39a5.35,5.35,0,0,0,7.57,0l15.46-15.45V205a5.34,5.34,0,0,0,5.35,5.35h27.42A5.34,5.34,0,0,0,178.7,205V183.12l15.46,15.45a5.34,5.34,0,0,0,7.56,0l19.39-19.39a5.35,5.35,0,0,0,0-7.57l-15.45-15.46h21.85a5.34,5.34,0,0,0,5.35-5.35V123.38a5.35,5.35,0,0,0-5.35-5.35H205.66l15.45-15.46a5.34,5.34,0,0,0,0-7.56L201.72,75.62a5.34,5.34,0,0,0-7.56,0L178.7,91.07Zm-18.83,92.05a24.18,24.18,0,1,0-24.17-24.18A24.17,24.17,0,0,0,159.87,161.27Z"/></g></mask><mask id="mask-4" x="93.31" y="70.77" width="133.12" height="133.12" maskUnits="userSpaceOnUse"><g id="path-1085-inside-160_170_3366" data-name="path-1085-inside-160 170 3366"><path class="cls-1" d="M167.82,71.77a5.34,5.34,0,0,1,5.35,5.35V87a52.36,52.36,0,0,1,12,4.86l6.87-6.88a5.37,5.37,0,0,1,7.57,0l12,12a5.34,5.34,0,0,1,0,7.57L205,111.25a51.58,51.58,0,0,1,5.11,12.15h10a5.36,5.36,0,0,1,5.35,5.35v17a5.35,5.35,0,0,1-5.35,5.35h-10A52.22,52.22,0,0,1,205,163.27l6.74,6.75a5.32,5.32,0,0,1,0,7.56l-12,12a5.34,5.34,0,0,1-7.56,0l-6.85-6.84a51.83,51.83,0,0,1-12.17,4.92v9.85a5.35,5.35,0,0,1-5.35,5.35h-17a5.35,5.35,0,0,1-5.35-5.35V187.38a52,52,0,0,1-11.69-5l-7.27,7.27a5.36,5.36,0,0,1-7.56,0l-12-12a5.35,5.35,0,0,1,0-7.57l7.43-7.42a51.43,51.43,0,0,1-4.73-11.57h-10a5.35,5.35,0,0,1-5.35-5.35v-17a5.36,5.36,0,0,1,5.35-5.35h10a51.83,51.83,0,0,1,4.76-11.55l-7.39-7.4a5.34,5.34,0,0,1,0-7.56l12-12a5.35,5.35,0,0,1,7.57,0l7.29,7.3a52.14,52.14,0,0,1,11.56-4.91V77.12a5.34,5.34,0,0,1,5.35-5.35Zm-7.95,100a34.41,34.41,0,1,0-34.41-34.4A34.41,34.41,0,0,0,159.87,171.73Z"/></g></mask></defs><g id="Layer_2" data-name="Layer 2"><g id="Layer_1-2" data-name="Layer 1"><rect x="0.5" y="10.2" width="237.74" height="182.23" rx="15.55"/><path d="M222.69,192.93H16.05A16.07,16.07,0,0,1,0,176.88V25.75a16.07,16.07,0,0,1,16.05-16H222.69a16.07,16.07,0,0,1,16.05,16.05V176.88A16.07,16.07,0,0,1,222.69,192.93ZM16.05,10.7A15.07,15.07,0,0,0,1,25.75V176.88a15.07,15.07,0,0,0,15.05,15.05H222.69a15.07,15.07,0,0,0,15.05-15.05V25.75a15.07,15.07,0,0,0-15.05-15Z"/><rect class="cls-2" x="9.2" y="4.85" width="237.74" height="178.89" rx="15.55"/><path d="M231.39,184.24H24.74a16.07,16.07,0,0,1-16-16.05V20.4a16.07,16.07,0,0,1,16-16H231.39a16.07,16.07,0,0,1,16.05,16V168.19A16.07,16.07,0,0,1,231.39,184.24ZM24.74,5.35A15.06,15.06,0,0,0,9.7,20.4V168.19a15.06,15.06,0,0,0,15,15.05H231.39a15.06,15.06,0,0,0,15-15.05V20.4a15.06,15.06,0,0,0-15-15Z"/><path class="cls-3" d="M247.44,168.19a16.06,16.06,0,0,1-16.05,16.05H24.74a16.06,16.06,0,0,1-16-16.05V31.1H247.44Z"/><g class="cls-4"><path d="M231.39,184.24v1h0Zm-206.65,0v-1h0ZM8.69,31.1v-1h-1v1Zm238.75,0h1v-1h-1ZM231.39,185.24a17.05,17.05,0,0,0,17.05-17.05h-2a15,15,0,0,1-15,15.05Zm-206.65,0H231.39v-2H24.74Zm-17-17.05a17.05,17.05,0,0,0,17,17.05v-2a15,15,0,0,1-15-15.05Zm0-137.09V168.19h2V31.1Zm1,1H247.44v-2H8.69Zm237.74-1V168.19h2V31.1Z"/></g><circle class="cls-5" cx="26.08" cy="19.73" r="4.85"/><path d="M26.08,25.08a5.35,5.35,0,1,1,5.35-5.35A5.36,5.36,0,0,1,26.08,25.08Zm0-9.7a4.35,4.35,0,1,0,4.35,4.35A4.35,4.35,0,0,0,26.08,15.38Z"/><circle class="cls-6" cx="42.13" cy="19.73" r="4.85"/><path d="M42.13,25.08a5.35,5.35,0,1,1,5.35-5.35A5.36,5.36,0,0,1,42.13,25.08Zm0-9.7a4.35,4.35,0,1,0,4.35,4.35A4.35,4.35,0,0,0,42.13,15.38Z"/><circle class="cls-6" cx="58.18" cy="19.73" r="4.85"/><path d="M58.18,25.08a5.35,5.35,0,1,1,5.35-5.35A5.36,5.36,0,0,1,58.18,25.08Zm0-9.7a4.35,4.35,0,1,0,4.35,4.35A4.35,4.35,0,0,0,58.18,15.38Z"/><path class="cls-7" d="M169.19,69.22a5.34,5.34,0,0,0-5.35-5.35H136.42a5.35,5.35,0,0,0-5.35,5.35V91.07L115.61,75.62a5.34,5.34,0,0,0-7.56,0L88.66,95a5.34,5.34,0,0,0,0,7.56L104.11,118H82.26a5.35,5.35,0,0,0-5.35,5.35V150.8a5.34,5.34,0,0,0,5.35,5.35h21.85L88.66,171.61a5.35,5.35,0,0,0,0,7.57l19.39,19.39a5.34,5.34,0,0,0,7.56,0l15.46-15.45V205a5.35,5.35,0,0,0,5.35,5.35h27.42a5.34,5.34,0,0,0,5.35-5.35V183.12l15.46,15.45a5.35,5.35,0,0,0,7.57,0l19.39-19.39a5.35,5.35,0,0,0,0-7.57l-15.45-15.46H218a5.34,5.34,0,0,0,5.35-5.35V123.38A5.35,5.35,0,0,0,218,118H196.16l15.45-15.46a5.34,5.34,0,0,0,0-7.56L192.22,75.62a5.35,5.35,0,0,0-7.57,0L169.19,91.07Zm-18.82,92.05a24.18,24.18,0,1,0-24.18-24.18A24.17,24.17,0,0,0,150.37,161.27Z"/><g class="cls-8"><path d="M163.84,63.87v-1h0Zm-27.42,0v-1h0Zm-5.35,27.2-.71.71,1.72,1.71V91.07ZM115.61,75.62l.72-.71h0Zm-7.56,0-.71-.71h0ZM88.66,95l.7.71h0Zm15.45,23v1h2.42l-1.71-1.72Zm0,38.12.71.72,1.72-1.72h-2.43ZM88.66,171.61l.7.71h0Zm0,7.57-.71.71h0Zm19.39,19.39-.71.71h0Zm7.56,0,.72.71h0Zm15.46-15.45h1V180.7l-1.72,1.71Zm38.12,0,.72-.71-1.72-1.71v2.42Zm27-27v-1h-2.42l1.71,1.72Zm0-38.12-.71-.71L193.74,119h2.42Zm15.45-15.46.71.72h0Zm0-7.56-.71.71h0ZM192.22,75.62l-.71.7h0Zm-7.57,0,.71.7h0ZM169.19,91.07h-1v2.42l1.72-1.71Zm-5.35-26.2a4.35,4.35,0,0,1,4.35,4.35h2a6.36,6.36,0,0,0-6.36-6.36Zm-27.42,0h27.42v-2H136.42Zm-4.34,4.35a4.34,4.34,0,0,1,4.34-4.35v-2a6.35,6.35,0,0,0-6.35,6.36Zm0,21.85V69.22h-2V91.07ZM114.9,76.32l15.46,15.46,1.42-1.42L116.33,74.91Zm-6.14,0a4.35,4.35,0,0,1,6.14,0l1.43-1.41a6.36,6.36,0,0,0-9,0Zm-19.4,19.4,19.4-19.4-1.42-1.41L88,94.3Zm0,6.14a4.35,4.35,0,0,1,0-6.14L88,94.3a6.36,6.36,0,0,0,0,9Zm15.46,15.46L89.36,101.86,88,103.29l15.45,15.45ZM82.26,119h21.85v-2H82.26Zm-4.35,4.34A4.34,4.34,0,0,1,82.26,119v-2a6.35,6.35,0,0,0-6.36,6.35Zm0,27.42V123.38h-2V150.8Zm4.35,4.35a4.35,4.35,0,0,1-4.35-4.35h-2a6.36,6.36,0,0,0,6.36,6.36Zm21.85,0H82.26v2h21.85ZM89.36,172.32l15.46-15.45-1.42-1.43L88,170.9Zm0,6.15a4.36,4.36,0,0,1,0-6.15L88,170.9a6.36,6.36,0,0,0,0,9Zm19.4,19.39-19.4-19.39L88,179.89l19.39,19.39Zm6.14,0a4.33,4.33,0,0,1-6.14,0l-1.42,1.42a6.36,6.36,0,0,0,9,0Zm15.46-15.45L114.9,197.86l1.43,1.42,15.45-15.46ZM132.08,205V183.12h-2V205Zm4.34,4.35a4.34,4.34,0,0,1-4.34-4.35h-2a6.35,6.35,0,0,0,6.35,6.35Zm27.42,0H136.42v2h27.42Zm4.35-4.35a4.35,4.35,0,0,1-4.35,4.35v2A6.35,6.35,0,0,0,170.2,205Zm0-21.85V205h2V183.12Zm17.17,14.74-15.45-15.45-1.43,1.41,15.46,15.46Zm6.15,0a4.35,4.35,0,0,1-6.15,0l-1.42,1.42a6.36,6.36,0,0,0,9,0Zm19.39-19.39-19.39,19.39,1.42,1.42,19.39-19.39Zm0-6.15a4.36,4.36,0,0,1,0,6.15l1.42,1.42a6.36,6.36,0,0,0,0-9Zm-15.45-15.45,15.45,15.45,1.42-1.42-15.45-15.46ZM218,155.15H196.16v2H218Zm4.35-4.35a4.35,4.35,0,0,1-4.35,4.35v2a6.35,6.35,0,0,0,6.35-6.36Zm0-27.42V150.8h2V123.38ZM218,119a4.34,4.34,0,0,1,4.35,4.34h2A6.35,6.35,0,0,0,218,117Zm-21.85,0H218v-2H196.16Zm14.74-17.18-15.45,15.46,1.42,1.42,15.45-15.45Zm0-6.14a4.33,4.33,0,0,1,0,6.14l1.42,1.43a6.36,6.36,0,0,0,0-9Zm-19.39-19.4,19.39,19.4,1.42-1.42L192.93,74.91Zm-6.15,0a4.36,4.36,0,0,1,6.15,0l1.42-1.41a6.36,6.36,0,0,0-9,0ZM169.91,91.78l15.45-15.46-1.42-1.41L168.48,90.36Zm-1.72-22.56V91.07h2V69.22Zm5.35,67.87a23.17,23.17,0,0,1-23.17,23.18v2a25.18,25.18,0,0,0,25.18-25.18Zm-23.17-23.17a23.17,23.17,0,0,1,23.17,23.17h2a25.19,25.19,0,0,0-25.18-25.18ZM127.2,137.09a23.17,23.17,0,0,1,23.17-23.17v-2a25.18,25.18,0,0,0-25.18,25.18Zm23.17,23.18a23.17,23.17,0,0,1-23.17-23.18h-2a25.18,25.18,0,0,0,25.18,25.18Z"/></g><path class="cls-9" d="M178.7,69.22a5.34,5.34,0,0,0-5.35-5.35H145.93a5.34,5.34,0,0,0-5.35,5.35V91.07L125.12,75.62a5.35,5.35,0,0,0-7.57,0L98.17,95a5.32,5.32,0,0,0,0,7.56L113.62,118H91.76a5.35,5.35,0,0,0-5.35,5.35V150.8a5.34,5.34,0,0,0,5.35,5.35h21.86L98.17,171.61a5.34,5.34,0,0,0,0,7.57l19.38,19.39a5.35,5.35,0,0,0,7.57,0l15.46-15.45V205a5.34,5.34,0,0,0,5.35,5.35h27.42A5.34,5.34,0,0,0,178.7,205V183.12l15.46,15.45a5.34,5.34,0,0,0,7.56,0l19.39-19.39a5.35,5.35,0,0,0,0-7.57l-15.45-15.46h21.85a5.34,5.34,0,0,0,5.35-5.35V123.38a5.35,5.35,0,0,0-5.35-5.35H205.66l15.45-15.46a5.34,5.34,0,0,0,0-7.56L201.72,75.62a5.34,5.34,0,0,0-7.56,0L178.7,91.07Zm-18.83,92.05a24.18,24.18,0,1,0-24.17-24.18A24.17,24.17,0,0,0,159.87,161.27Z"/><g class="cls-10"><path d="M173.35,63.87v-1h0Zm-27.42,0v-1h0Zm-5.35,27.2-.71.71,1.71,1.71V91.07ZM125.12,75.62l.71-.71h0Zm-7.57,0-.71-.71h0ZM98.17,95l.7.71h0Zm15.45,23v1H116l-1.71-1.72Zm0,38.12.71.72,1.71-1.72h-2.42ZM98.17,171.61l.7.71h0Zm0,7.57-.71.71h0Zm19.38,19.39-.71.71h0Zm7.57,0,.71.71h0Zm15.46-15.45h1V180.7l-1.71,1.71Zm38.12,0,.71-.71-1.71-1.71v2.42Zm27-27v-1h-2.42l1.71,1.72Zm0-38.12-.71-.71L203.24,119h2.42Zm15.45-15.46.71.72h0Zm0-7.56-.7.71h0ZM201.72,75.62l-.71.7h0Zm-7.56,0,.71.7h0ZM178.7,91.07h-1v2.42l1.71-1.71Zm-5.35-26.2a4.35,4.35,0,0,1,4.35,4.35h2a6.36,6.36,0,0,0-6.36-6.36Zm-27.42,0h27.42v-2H145.93Zm-4.35,4.35a4.35,4.35,0,0,1,4.35-4.35v-2a6.36,6.36,0,0,0-6.36,6.36Zm0,21.85V69.22h-2V91.07ZM124.41,76.32l15.46,15.46,1.42-1.42L125.83,74.91Zm-6.15,0a4.36,4.36,0,0,1,6.15,0l1.42-1.41a6.36,6.36,0,0,0-9,0ZM98.87,95.72l19.39-19.4-1.42-1.41L97.45,94.3Zm0,6.14a4.35,4.35,0,0,1,0-6.14L97.45,94.3a6.36,6.36,0,0,0,0,9Zm15.46,15.46L98.87,101.86l-1.42,1.43,15.46,15.45ZM91.76,119h21.86v-2H91.76Zm-4.35,4.34A4.34,4.34,0,0,1,91.76,119v-2a6.35,6.35,0,0,0-6.35,6.35Zm0,27.42V123.38h-2V150.8Zm4.35,4.35a4.35,4.35,0,0,1-4.35-4.35h-2a6.35,6.35,0,0,0,6.35,6.36Zm21.86,0H91.76v2h21.86ZM98.87,172.32l15.46-15.45-1.42-1.43L97.46,170.9Zm0,6.15a4.36,4.36,0,0,1,0-6.15l-1.41-1.42a6.36,6.36,0,0,0,0,9Zm19.39,19.39L98.87,178.47l-1.41,1.42,19.38,19.39Zm6.15,0a4.35,4.35,0,0,1-6.15,0l-1.42,1.42a6.36,6.36,0,0,0,9,0Zm15.46-15.45-15.46,15.45,1.42,1.42,15.46-15.46ZM141.58,205V183.12h-2V205Zm4.35,4.35a4.35,4.35,0,0,1-4.35-4.35h-2a6.35,6.35,0,0,0,6.36,6.35Zm27.42,0H145.93v2h27.42ZM177.7,205a4.35,4.35,0,0,1-4.35,4.35v2a6.35,6.35,0,0,0,6.36-6.35Zm0-21.85V205h2V183.12Zm17.17,14.74-15.46-15.45L178,183.82l15.46,15.46Zm6.14,0a4.33,4.33,0,0,1-6.14,0l-1.42,1.42a6.35,6.35,0,0,0,9,0Zm19.4-19.39L201,197.86l1.42,1.42,19.39-19.39Zm0-6.15a4.36,4.36,0,0,1,0,6.15l1.41,1.42a6.36,6.36,0,0,0,0-9ZM205,156.87l15.46,15.45,1.41-1.42-15.45-15.46Zm22.56-1.72H205.66v2h21.85Zm4.35-4.35a4.35,4.35,0,0,1-4.35,4.35v2a6.36,6.36,0,0,0,6.36-6.36Zm0-27.42V150.8h2V123.38ZM227.51,119a4.34,4.34,0,0,1,4.35,4.34h2a6.35,6.35,0,0,0-6.36-6.35Zm-21.85,0h21.85v-2H205.66Zm14.75-17.18L205,117.32l1.42,1.42,15.45-15.45Zm0-6.14a4.35,4.35,0,0,1,0,6.14l1.41,1.43a6.36,6.36,0,0,0,0-9ZM201,76.32l19.4,19.4,1.41-1.42L202.43,74.91Zm-6.14,0a4.35,4.35,0,0,1,6.14,0l1.42-1.41a6.35,6.35,0,0,0-9,0ZM179.41,91.78l15.46-15.46-1.42-1.41L178,90.36ZM177.7,69.22V91.07h2V69.22ZM183,137.09a23.17,23.17,0,0,1-23.17,23.18v2a25.18,25.18,0,0,0,25.18-25.18Zm-23.17-23.17A23.17,23.17,0,0,1,183,137.09h2a25.18,25.18,0,0,0-25.18-25.18ZM136.7,137.09a23.17,23.17,0,0,1,23.17-23.17v-2a25.19,25.19,0,0,0-25.18,25.18Zm23.17,23.18a23.17,23.17,0,0,1-23.17-23.18h-2a25.18,25.18,0,0,0,25.18,25.18Z"/></g><path class="cls-11" d="M171.67,73.54A5.36,5.36,0,0,1,177,78.89v9.85a52,52,0,0,1,12,4.85l6.88-6.87a5.34,5.34,0,0,1,7.56,0l12,12a5.35,5.35,0,0,1,0,7.57L208.8,113a52.26,52.26,0,0,1,5.11,12.16h10a5.35,5.35,0,0,1,5.35,5.35v17a5.35,5.35,0,0,1-5.35,5.35H214A52.15,52.15,0,0,1,208.88,165l6.74,6.75a5.34,5.34,0,0,1,0,7.56l-12,12a5.34,5.34,0,0,1-7.56,0l-6.85-6.84A52,52,0,0,1,177,189.46v9.85a5.36,5.36,0,0,1-5.35,5.35h-17a5.36,5.36,0,0,1-5.35-5.35V189.15a51.54,51.54,0,0,1-11.69-5l-7.26,7.27a5.35,5.35,0,0,1-7.57,0l-12-12a5.37,5.37,0,0,1,0-7.57l7.43-7.42a51.32,51.32,0,0,1-4.72-11.56h-10a5.35,5.35,0,0,1-5.35-5.35v-17a5.35,5.35,0,0,1,5.35-5.35h10a51.24,51.24,0,0,1,4.76-11.56l-7.4-7.4a5.36,5.36,0,0,1,0-7.56l12-12a5.36,5.36,0,0,1,7.56,0l7.3,7.3A51.83,51.83,0,0,1,149.32,89V78.89a5.36,5.36,0,0,1,5.35-5.35Zm-7.95,100a34.41,34.41,0,1,0-34.41-34.41A34.41,34.41,0,0,0,163.72,173.51Z"/><g class="cls-12"><path d="M167.82,71.77v-1h0ZM173.17,87h-1v.78l.75.19Zm12,4.86-.49.88.66.37.54-.54Zm6.87-6.88.71.71h0Zm7.57,0-.71.71h0Zm12,12-.7.71h0Zm0,7.57.71.71h0ZM205,111.25l-.71-.71-.54.54.38.67Zm5.11,12.15-1,.27.2.74h.76Zm0,27.7v-1h-.76l-.2.74ZM205,163.27l-.87-.5-.39.66.55.55Zm-19.69,19.49.71-.71-.53-.55-.67.38Zm-12.17,4.92-.25-1-.75.2v.77Zm-5.35,15.2v-1h0Zm-17,0v1h0Zm-5.35-15.5h1v-.75l-.73-.21Zm-11.69-5,.5-.87-.66-.39-.55.55Zm-7.27,7.27.72.71h0Zm-7.56,0-.71.71h0Zm-12-12,.71-.71h0Zm0-7.57.71.71h0Zm7.43-7.42.71.7.53-.53-.36-.66Zm-4.73-11.57,1-.26-.2-.74h-.76Zm0-27.7v1h.76l.2-.74Zm4.76-11.55.88.49.37-.66-.54-.54Zm-7.39-7.4.71-.71h0Zm0-7.56-.71-.71h0Zm12-12,.71.71h0Zm7.57,0,.71-.71h0Zm7.29,7.3-.71.71.55.54.66-.38Zm11.56-4.91.27,1,.73-.21v-.76Zm5.35-15.49v0Zm23.34,5.35a6.35,6.35,0,0,0-6.35-6.35v2a4.35,4.35,0,0,1,4.35,4.35Zm0,9.84V77.12h-2V87Zm11.53,4a53.45,53.45,0,0,0-12.27-5l-.51,1.94a51.55,51.55,0,0,1,11.8,4.77Zm5.68-6.7-6.88,6.87,1.42,1.42,6.87-6.88Zm9,0a6.33,6.33,0,0,0-9,0l1.41,1.41a4.36,4.36,0,0,1,6.15,0Zm12,12-12-12-1.42,1.41,12,12Zm0,9a6.36,6.36,0,0,0,0-9L211,97.67a4.36,4.36,0,0,1,0,6.15ZM205.66,112l6.71-6.71L211,103.82l-6.72,6.72ZM211,123.14a53.27,53.27,0,0,0-5.21-12.4l-1.74,1a50.67,50.67,0,0,1,5,11.92Zm9.05-.74h-10v2h10Zm6.35,6.35a6.35,6.35,0,0,0-6.35-6.35v2a4.34,4.34,0,0,1,4.34,4.34Zm0,17v-17h-2v17Zm-6.35,6.36a6.35,6.35,0,0,0,6.35-6.36h-2a4.34,4.34,0,0,1-4.34,4.35Zm-10,0h10v-2h-10Zm-4.2,11.66a52.46,52.46,0,0,0,5.17-12.41l-1.93-.52a51.24,51.24,0,0,1-5,11.93Zm6.58,5.54-6.74-6.75L204.32,164l6.74,6.74Zm0,9a6.35,6.35,0,0,0,0-9l-1.42,1.41a4.35,4.35,0,0,1,0,6.15Zm-12,12,12-12-1.42-1.42-12,12Zm-9,0a6.35,6.35,0,0,0,9,0l-1.41-1.42a4.35,4.35,0,0,1-6.15,0Zm-6.85-6.85,6.85,6.85,1.42-1.42-6.85-6.84Zm-11.2,5.19a52.36,52.36,0,0,0,12.41-5l-1-1.74a50.58,50.58,0,0,1-11.93,4.83Zm.74,8.88v-9.85h-2v9.85Zm-6.35,6.36a6.35,6.35,0,0,0,6.35-6.36h-2a4.35,4.35,0,0,1-4.35,4.35Zm-17,0h17v-2h-17Zm-6.35-6.36a6.35,6.35,0,0,0,6.35,6.36v-2a4.35,4.35,0,0,1-4.35-4.35Zm0-10.15v10.15h2V187.38Zm-11.19-4.1a53.31,53.31,0,0,0,11.91,5.07l.55-1.93a50.82,50.82,0,0,1-11.46-4.88Zm-6,7.11,7.26-7.27-1.42-1.42L125.81,189Zm-9,0a6.36,6.36,0,0,0,9,0L125.81,189a4.35,4.35,0,0,1-6.14,0Zm-12-12,12,12,1.42-1.42-12-12Zm0-9a6.36,6.36,0,0,0,0,9l1.42-1.42a4.35,4.35,0,0,1,0-6.15Zm7.43-7.42-7.43,7.42,1.42,1.42,7.43-7.43Zm-5-10.6a53,53,0,0,0,4.82,11.79l1.76-1a51.22,51.22,0,0,1-4.65-11.34Zm-9,.75h10v-2h-10Zm-6.35-6.36a6.35,6.35,0,0,0,6.35,6.36v-2a4.34,4.34,0,0,1-4.34-4.35Zm0-17v17h2v-17Zm6.35-6.35a6.35,6.35,0,0,0-6.35,6.35h2a4.34,4.34,0,0,1,4.34-4.34Zm10,0h-10v2h10Zm3.89-11a52.57,52.57,0,0,0-4.86,11.78l1.93.53a51,51,0,0,1,4.68-11.33Zm-7.23-6.2,7.39,7.4,1.42-1.42-7.39-7.4Zm0-9a6.35,6.35,0,0,0,0,9l1.42-1.42a4.33,4.33,0,0,1,0-6.14Zm12-12-12,12,1.42,1.42,12-12Zm9,0a6.36,6.36,0,0,0-9,0l1.42,1.42a4.35,4.35,0,0,1,6.15,0Zm7.29,7.3-7.29-7.3-1.42,1.42,7.29,7.3ZM145.2,86.3a53,53,0,0,0-11.78,5l1,1.74a50.74,50.74,0,0,1,11.33-4.81Zm-.72-9.18V87.26h2V77.12Zm6.35-6.35a6.35,6.35,0,0,0-6.35,6.35h2a4.35,4.35,0,0,1,4.35-4.35Zm17,0h-17v2h17Zm25.45,66.56a33.4,33.4,0,0,1-33.4,33.4v2a35.42,35.42,0,0,0,35.41-35.41Zm-33.4-33.41a33.4,33.4,0,0,1,33.4,33.41h2a35.41,35.41,0,0,0-35.41-35.41Zm-33.4,33.41a33.4,33.4,0,0,1,33.4-33.41v-2a35.41,35.41,0,0,0-35.41,35.41Zm33.4,33.4a33.4,33.4,0,0,1-33.4-33.4h-2a35.42,35.42,0,0,0,35.41,35.41Z"/></g><path d="M85.93,54.34H31.43a.51.51,0,0,1,0-1h54.5a.51.51,0,1,1,0,1Z"/><path d="M63.87,93.79H31.43a.5.5,0,1,1,0-1H63.87a.5.5,0,1,1,0,1Z"/><path d="M63.87,135.92H31.43a.5.5,0,0,1,0-1H63.87a.5.5,0,0,1,0,1Z"/><path d="M47.48,63h-16a.5.5,0,0,1-.5-.5.5.5,0,0,1,.5-.5h16a.5.5,0,0,1,.5.5A.5.5,0,0,1,47.48,63Z"/><path d="M47.48,102.49h-16a.51.51,0,0,1,0-1h16a.51.51,0,0,1,0,1Z"/><path d="M47.48,144.62h-16a.51.51,0,0,1,0-1h16a.51.51,0,0,1,0,1Z"/><path class="cls-13" d="M58,213.76a.52.52,0,0,1-.5.41.5.5,0,0,1-.49-.41L53.57,196.6l-16.89-3.51a.5.5,0,0,1,0-1l16.89-3.51L57,171.43a.5.5,0,0,1,.49-.4.52.52,0,0,1,.5.4l3.45,17.17,16.88,3.51a.5.5,0,0,1,0,1L61.46,196.6Z"/><path d="M57.51,214.67a1,1,0,0,1-1-.79L53.14,197l-16.56-3.44a1,1,0,0,1,0-2l16.56-3.44,3.39-16.85a1,1,0,0,1,1-.8,1,1,0,0,1,1,.79l3.38,16.86,16.57,3.44a1,1,0,0,1,0,2L61.88,197,58.5,213.86v0A1,1,0,0,1,57.51,214.67Zm0-43.14L54.06,188.7a.49.49,0,0,1-.39.39L36.78,192.6l16.89,3.51a.49.49,0,0,1,.39.39l3.45,17.17.5.1-.49-.1L61,196.5a.49.49,0,0,1,.39-.39l16.88-3.51-16.88-3.51a.49.49,0,0,1-.39-.39Z"/><path class="cls-14" d="M197.13,37.88a.49.49,0,0,0,1,0l3.07-14.94,14.94-3.06a.5.5,0,0,0,.4-.49.48.48,0,0,0-.4-.48l-14.94-3.07L198.1.9a.49.49,0,0,0-1,0l-3.07,14.94-14.94,3.07a.48.48,0,0,0-.4.48.5.5,0,0,0,.4.49l14.94,3.06Z"/><path d="M197.61,38.79a1,1,0,0,1-1-.81l-3-14.61-14.62-3a1,1,0,0,1-.8-1,1,1,0,0,1,.81-1l14.61-3,3-14.62a1,1,0,0,1,1-.8,1,1,0,0,1,1,.8l3,14.62,14.62,3a1,1,0,0,1,.8,1,1,1,0,0,1-.81,1l-14.61,3-3,14.61A1,1,0,0,1,197.61,38.79Zm0-37.79-3.06,14.94a.49.49,0,0,1-.39.39L179.22,19.4l14.94,3.05a.5.5,0,0,1,.39.39l3.07,14.94h0l3-14.95a.52.52,0,0,1,.4-.39L216,19.39l-14.93-3.06a.5.5,0,0,1-.4-.39Z"/></g></g></svg>