<svg xmlns="http://www.w3.org/2000/svg" xmlns:xlink="http://www.w3.org/1999/xlink" viewBox="0 0 277.16 227.1"><defs><style>.cls-1{fill:#fff;}.cls-1,.cls-13,.cls-2,.cls-4,.cls-8{fill-rule:evenodd;}.cls-3{mask:url(#mask);}.cls-4,.cls-6{fill:#c6f9b4;}.cls-5{mask:url(#mask-2);}.cls-7{mask:url(#mask-3);}.cls-8{fill:#a9a6ff;}.cls-9{mask:url(#mask-4);}.cls-10{mask:url(#mask-5);}.cls-11,.cls-13{fill:#f7cb45;}.cls-12{mask:url(#mask-6);}.cls-14{mask:url(#mask-7);}.cls-15{mask:url(#mask-8);}</style><mask id="mask" x="77.57" y="0" width="89.61" height="142.44" maskUnits="userSpaceOnUse"><g id="path-164-inside-34_170_3366" data-name="path-164-inside-34 170 3366"><path class="cls-1" d="M122.38.67A44,44,0,0,1,166.52,44.6v97.17H153.14V47.45a30.76,30.76,0,0,0-61.52,0v94.32H78.24V44.6A44,44,0,0,1,122.38.67Z"/></g></mask><mask id="mask-2" x="83.59" y="0" width="89.61" height="142.44" maskUnits="userSpaceOnUse"><g id="path-166-inside-35_170_3366" data-name="path-166-inside-35 170 3366"><path class="cls-1" d="M128.4.67A44,44,0,0,1,172.54,44.6v97.17H159.16V47.45a30.76,30.76,0,0,0-61.52,0v94.32H84.26V44.6A44,44,0,0,1,128.4.67Z"/></g></mask><mask id="mask-3" x="15.72" y="50.49" width="238.07" height="67.54" maskUnits="userSpaceOnUse"><g id="path-169-inside-36_170_3366" data-name="path-169-inside-36 170 3366"><path class="cls-1" d="M16.72,117H252.79V75.57a24.08,24.08,0,0,0-24.08-24.08H40.79A24.08,24.08,0,0,0,16.72,75.57Z"/></g></mask><mask id="mask-4" x="15.72" y="46.48" width="238.07" height="67.54" maskUnits="userSpaceOnUse"><g id="path-171-inside-37_170_3366" data-name="path-171-inside-37 170 3366"><path class="cls-1" d="M16.72,113H252.79V71.56a24.08,24.08,0,0,0-24.08-24.08H40.79A24.08,24.08,0,0,0,16.72,71.56Z"/></g></mask><mask id="mask-5" x="32.43" y="62.53" width="204.64" height="51.57" maskUnits="userSpaceOnUse"><g id="path-173-inside-38_170_3366" data-name="path-173-inside-38 170 3366"><path class="cls-1" d="M33.44,113.1H236.07V87.61A24.08,24.08,0,0,0,212,63.53H57.49A24.07,24.07,0,0,0,33.44,87.61Z"/></g></mask><mask id="mask-6" x="134.08" y="92.62" width="134.47" height="134.47" maskUnits="userSpaceOnUse"><g id="path-178-inside-39_170_3366" data-name="path-178-inside-39 170 3366"><path class="cls-1" d="M218.56,99a5.35,5.35,0,0,0-5.35-5.35H189.43A5.35,5.35,0,0,0,184.08,99v19.26l-13.62-13.61a5.35,5.35,0,0,0-7.57,0l-16.82,16.81a5.37,5.37,0,0,0,0,7.57l13.63,13.62H140.44a5.34,5.34,0,0,0-5.35,5.35v23.78a5.34,5.34,0,0,0,5.35,5.35H159.7l-13.62,13.62a5.34,5.34,0,0,0,0,7.56l16.81,16.82a5.35,5.35,0,0,0,7.57,0l13.62-13.62v19.26a5.34,5.34,0,0,0,5.35,5.35h23.78a5.34,5.34,0,0,0,5.35-5.35V201.48l13.62,13.62a5.35,5.35,0,0,0,7.57,0l16.81-16.82a5.34,5.34,0,0,0,0-7.56L243,177.1H262.2a5.34,5.34,0,0,0,5.35-5.35V148a5.34,5.34,0,0,0-5.35-5.35H243L256.56,129a5.35,5.35,0,0,0,0-7.57l-16.81-16.81a5.35,5.35,0,0,0-7.57,0l-13.62,13.61Zm-17,82.76a21.87,21.87,0,1,0-21.86-21.87A21.87,21.87,0,0,0,201.53,181.73Z"/></g></mask><mask id="mask-7" x="142.68" y="92.62" width="134.47" height="134.47" maskUnits="userSpaceOnUse"><g id="path-180-inside-40_170_3366" data-name="path-180-inside-40 170 3366"><path class="cls-1" d="M227.16,99a5.35,5.35,0,0,0-5.35-5.35H198A5.35,5.35,0,0,0,192.68,99v19.26l-13.62-13.61a5.35,5.35,0,0,0-7.57,0l-16.82,16.81a5.37,5.37,0,0,0,0,7.57l13.62,13.62H149a5.34,5.34,0,0,0-5.35,5.35v23.78A5.34,5.34,0,0,0,149,177.1h19.25l-13.62,13.62a5.36,5.36,0,0,0,0,7.56l16.82,16.82a5.35,5.35,0,0,0,7.57,0l13.62-13.62v19.26a5.34,5.34,0,0,0,5.35,5.35h23.78a5.34,5.34,0,0,0,5.35-5.35V201.48l13.62,13.62a5.35,5.35,0,0,0,7.57,0l16.81-16.82a5.34,5.34,0,0,0,0-7.56L251.54,177.1H270.8a5.34,5.34,0,0,0,5.35-5.35V148a5.34,5.34,0,0,0-5.35-5.35H251.54L265.16,129a5.35,5.35,0,0,0,0-7.57l-16.81-16.81a5.35,5.35,0,0,0-7.57,0l-13.62,13.61Zm-17,82.76a21.87,21.87,0,1,0-21.87-21.87A21.87,21.87,0,0,0,210.13,181.73Z"/></g></mask><mask id="mask-8" x="149.83" y="99.77" width="120.6" height="120.6" maskUnits="userSpaceOnUse"><g id="path-182-inside-41_170_3366" data-name="path-182-inside-41 170 3366"><path class="cls-1" d="M216.81,100.77a5.36,5.36,0,0,1,5.35,5.35v8.4A46.79,46.79,0,0,1,233,118.91l5.86-5.86a5.35,5.35,0,0,1,7.57,0l10.15,10.15a5.37,5.37,0,0,1,0,7.57l-5.71,5.71a47.08,47.08,0,0,1,4.62,11h8.54a5.34,5.34,0,0,1,5.35,5.35v14.35a5.35,5.35,0,0,1-5.35,5.35h-8.51a46.41,46.41,0,0,1-4.59,11l5.74,5.74a5.34,5.34,0,0,1,0,7.56L246.57,207a5.35,5.35,0,0,1-7.57,0l-5.83-5.83a47.34,47.34,0,0,1-11,4.46V214a5.35,5.35,0,0,1-5.35,5.35H202.46a5.34,5.34,0,0,1-5.35-5.35v-8.66a47,47,0,0,1-10.57-4.51l-6.21,6.22a5.35,5.35,0,0,1-7.57,0l-10.15-10.15a5.37,5.37,0,0,1,0-7.57L169,183a47,47,0,0,1-4.28-10.46h-8.51a5.36,5.36,0,0,1-5.35-5.35V152.83a5.35,5.35,0,0,1,5.35-5.35h8.55A46.83,46.83,0,0,1,169,137l-6.33-6.33a5.35,5.35,0,0,1,0-7.57L172.86,113a5.36,5.36,0,0,1,7.56,0l6.24,6.24a47.17,47.17,0,0,1,10.45-4.43v-8.67a5.35,5.35,0,0,1,5.35-5.35Zm-6.68,90.42A31.12,31.12,0,1,0,179,160.07,31.12,31.12,0,0,0,210.13,191.19Z"/></g></mask></defs><g id="Layer_2" data-name="Layer 2"><g id="Layer_1-2" data-name="Layer 1"><rect x="0.5" y="47.98" width="235.06" height="152.14" rx="23.57"/><path d="M212,200.62H24.07A24.1,24.1,0,0,1,0,176.55v-105A24.1,24.1,0,0,1,24.07,47.48H212a24.1,24.1,0,0,1,24.08,24.08v105A24.1,24.1,0,0,1,212,200.62ZM24.07,48.48A23.1,23.1,0,0,0,1,71.56v105a23.1,23.1,0,0,0,23.07,23.07H212a23.1,23.1,0,0,0,23.07-23.07v-105A23.1,23.1,0,0,0,212,48.48Z"/><path class="cls-2" d="M122.38.67A44,44,0,0,1,166.52,44.6v97.17H153.14V47.45a30.76,30.76,0,0,0-61.52,0v94.32H78.24V44.6A44,44,0,0,1,122.38.67Z"/><g class="cls-3"><path d="M166.52,141.77v.67h.67v-.67Zm-13.38,0h-.67v.67h.67Zm-61.52,0v.67h.67v-.67Zm-13.38,0h-.67v.67h.67Zm89-97.17A44.71,44.71,0,0,0,122.38,0V1.34A43.37,43.37,0,0,1,165.85,44.6Zm0,97.17V44.6h-1.34v97.17Zm-14.05.67h13.38v-1.33H153.14Zm.67-.67V47.45h-1.34v94.32Zm0-94.32a31.42,31.42,0,0,0-31.43-31.4v1.34a30.07,30.07,0,0,1,30.09,30.06Zm-31.43-31.4A31.42,31.42,0,0,0,91,47.45h1.34a30.07,30.07,0,0,1,30.09-30.06ZM91,47.45v94.32h1.34V47.45Zm-12.71,95H91.62v-1.33H78.24ZM77.57,44.6v97.17h1.34V44.6ZM122.38,0A44.71,44.71,0,0,0,77.57,44.6h1.34A43.37,43.37,0,0,1,122.38,1.34Z"/></g><path class="cls-4" d="M128.4.67A44,44,0,0,1,172.54,44.6v97.17H159.16V47.45a30.76,30.76,0,0,0-61.52,0v94.32H84.26V44.6A44,44,0,0,1,128.4.67Z"/><g class="cls-5"><path d="M172.54,141.77v.67h.67v-.67Zm-13.38,0h-.67v.67h.67Zm-61.52,0v.67h.67v-.67Zm-13.38,0h-.67v.67h.67Zm89-97.17A44.71,44.71,0,0,0,128.4,0V1.34A43.37,43.37,0,0,1,171.87,44.6Zm0,97.17V44.6h-1.34v97.17Zm-14.05.67h13.38v-1.33H159.16Zm.67-.67V47.45h-1.34v94.32Zm0-94.32a31.42,31.42,0,0,0-31.43-31.4v1.34a30.07,30.07,0,0,1,30.09,30.06ZM128.4,16.05A31.42,31.42,0,0,0,97,47.45h1.34A30.07,30.07,0,0,1,128.4,17.39ZM97,47.45v94.32h1.34V47.45Zm-12.71,95H97.64v-1.33H84.26ZM83.59,44.6v97.17h1.34V44.6ZM128.4,0A44.71,44.71,0,0,0,83.59,44.6h1.34A43.37,43.37,0,0,1,128.4,1.34Z"/></g><rect class="cls-6" x="17.22" y="47.98" width="235.06" height="152.14" rx="23.57"/><path d="M228.71,200.62H40.79a24.1,24.1,0,0,1-24.07-24.07v-105A24.1,24.1,0,0,1,40.79,47.48H228.71a24.1,24.1,0,0,1,24.08,24.08v105A24.1,24.1,0,0,1,228.71,200.62ZM40.79,48.48A23.1,23.1,0,0,0,17.72,71.56v105a23.1,23.1,0,0,0,23.07,23.07H228.71a23.1,23.1,0,0,0,23.07-23.07v-105a23.1,23.1,0,0,0-23.07-23.08Z"/><path class="cls-2" d="M16.72,117H252.79V75.57a24.08,24.08,0,0,0-24.08-24.08H40.79A24.08,24.08,0,0,0,16.72,75.57Z"/><g class="cls-7"><path d="M252.79,117v1h1v-1ZM16.72,117h-1v1h1Zm212-65.54v0Zm-158.13,0v-1h0Zm-29.79,0v-1h0ZM16.72,75.57h0ZM252.79,116H16.72v2H252.79Zm-1-40.46V117h2V75.57Zm2,0a25.08,25.08,0,0,0-25.08-25.08v2a23.07,23.07,0,0,1,23.07,23.07ZM228.71,50.49H70.58v2H228.71Zm-187.92,2H70.58v-2H40.79Zm0-2A25.08,25.08,0,0,0,15.72,75.57h2A23.07,23.07,0,0,1,40.79,52.5ZM15.72,75.57V117h2V75.57Z"/></g><path class="cls-8" d="M16.72,113H252.79V71.56a24.08,24.08,0,0,0-24.08-24.08H40.79A24.08,24.08,0,0,0,16.72,71.56Z"/><g class="cls-9"><path d="M252.79,113v1h1v-1ZM16.72,113h-1v1h1Zm212-65.54v0Zm-158.13,0v-1h0Zm-29.79,0v-1h0ZM16.72,71.56h0ZM252.79,112H16.72v2H252.79Zm-1-40.46V113h2V71.56Zm2,0a25.08,25.08,0,0,0-25.08-25.08v2a23.07,23.07,0,0,1,23.07,23.08ZM228.71,46.48H70.58v2H228.71Zm-187.92,2H70.58v-2H40.79Zm0-2A25.07,25.07,0,0,0,15.72,71.56h2A23.09,23.09,0,0,1,40.79,48.48ZM15.72,71.56V113h2V71.56Z"/></g><path class="cls-8" d="M33.44,113.1H236.07V87.61A24.08,24.08,0,0,0,212,63.53H57.49A24.07,24.07,0,0,0,33.44,87.61Z"/><g class="cls-10"><path d="M236.07,113.1v1h1v-1Zm-202.63,0h-1v1h1ZM57.49,63.53v-1h0ZM33.44,87.61h0Zm202.63,24.48H33.44v2H236.07Zm-1-24.48V113.1h2V87.61Zm2,0A25.08,25.08,0,0,0,212,62.53v2a23.07,23.07,0,0,1,23.07,23.08ZM57.49,64.53H212v-2H57.49Zm0-2A25.08,25.08,0,0,0,32.43,87.61h2A23.08,23.08,0,0,1,57.49,64.53ZM32.43,87.61V113.1h2V87.61Z"/></g><rect x="49.32" y="97.47" width="17.05" height="30.43" rx="4.85"/><path d="M61.52,128.4H54.17a5.36,5.36,0,0,1-5.35-5.35V102.32A5.36,5.36,0,0,1,54.17,97h7.35a5.36,5.36,0,0,1,5.35,5.35v20.73A5.36,5.36,0,0,1,61.52,128.4ZM54.17,98a4.35,4.35,0,0,0-4.35,4.35v20.73a4.35,4.35,0,0,0,4.35,4.35h7.35a4.35,4.35,0,0,0,4.35-4.35V102.32A4.35,4.35,0,0,0,61.52,98Z"/><rect class="cls-11" x="53.33" y="97.47" width="17.05" height="30.43" rx="4.85"/><path d="M65.54,128.4H58.18a5.36,5.36,0,0,1-5.35-5.35V102.32A5.36,5.36,0,0,1,58.18,97h7.36a5.36,5.36,0,0,1,5.35,5.35v20.73A5.36,5.36,0,0,1,65.54,128.4ZM58.18,98a4.35,4.35,0,0,0-4.35,4.35v20.73a4.35,4.35,0,0,0,4.35,4.35h7.36a4.35,4.35,0,0,0,4.34-4.35V102.32A4.35,4.35,0,0,0,65.54,98Z"/><path d="M61.52,117.53a.5.5,0,0,1-.5-.5v-9.36a.51.51,0,0,1,1,0V117A.5.5,0,0,1,61.52,117.53Z"/><path class="cls-2" d="M218.56,99a5.35,5.35,0,0,0-5.35-5.35H189.43A5.35,5.35,0,0,0,184.08,99v19.26l-13.62-13.61a5.35,5.35,0,0,0-7.57,0l-16.82,16.81a5.37,5.37,0,0,0,0,7.57l13.63,13.62H140.44a5.34,5.34,0,0,0-5.35,5.35v23.78a5.34,5.34,0,0,0,5.35,5.35H159.7l-13.62,13.62a5.34,5.34,0,0,0,0,7.56l16.81,16.82a5.35,5.35,0,0,0,7.57,0l13.62-13.62v19.26a5.34,5.34,0,0,0,5.35,5.35h23.78a5.34,5.34,0,0,0,5.35-5.35V201.48l13.62,13.62a5.35,5.35,0,0,0,7.57,0l16.81-16.82a5.34,5.34,0,0,0,0-7.56L243,177.1H262.2a5.34,5.34,0,0,0,5.35-5.35V148a5.34,5.34,0,0,0-5.35-5.35H243L256.56,129a5.35,5.35,0,0,0,0-7.57l-16.81-16.81a5.35,5.35,0,0,0-7.57,0l-13.62,13.61Zm-17,82.76a21.87,21.87,0,1,0-21.86-21.87A21.87,21.87,0,0,0,201.53,181.73Z"/><g class="cls-12"><path d="M213.21,93.62v-1h0Zm-23.78,0v0Zm-5.35,24.61-.71.71,1.71,1.71v-2.42Zm-13.62-13.61.71-.71h0Zm-7.57,0,.71.7h0Zm-16.82,16.81.72.71h0Zm0,7.57-.7.71h0Zm13.63,13.62v1h2.42l-1.71-1.71Zm0,34.48.71.71,1.71-1.71H159.7Zm-13.62,13.62.71.71h0Zm0,7.56-.71.71h0Zm16.81,16.82.71-.71h0Zm7.57,0,.71.71h0Zm13.62-13.62h1v-2.42l-1.71,1.72Zm5.35,24.61v1h0Zm23.78,0v-1h0Zm5.35-24.61.72-.7-1.72-1.72v2.42Zm13.62,13.62-.71.71h0Zm24.38-24.38-.7.71h0ZM243,177.1v-1h-2.43l1.72,1.71Zm0-34.48-.71-.71-1.71,1.71H243ZM256.56,129l.71.71h0Zm0-7.57-.7.71h0Zm-16.81-16.81-.71.7h0Zm-7.57,0,.71.7h0Zm-13.62,13.61h-1v2.43l1.72-1.72Zm-5.35-23.6A4.34,4.34,0,0,1,217.56,99h2a6.35,6.35,0,0,0-6.35-6.35Zm-23.78,0h23.78v-2H189.43ZM185.08,99a4.34,4.34,0,0,1,4.35-4.34v-2A6.35,6.35,0,0,0,183.08,99Zm0,19.26V99h-2v19.26Zm-15.33-12.91,13.62,13.62,1.42-1.42-13.62-13.61Zm-6.15,0a4.36,4.36,0,0,1,6.15,0l1.42-1.41a6.34,6.34,0,0,0-9,0Zm-16.81,16.82,16.81-16.82-1.42-1.41-16.81,16.81Zm0,6.15a4.35,4.35,0,0,1,0-6.15l-1.42-1.42a6.34,6.34,0,0,0,0,9Zm13.62,13.62-13.62-13.62-1.42,1.42L159,143.33Zm-20,1.71H159.7v-2H140.44ZM136.09,148a4.35,4.35,0,0,1,4.35-4.35v-2a6.36,6.36,0,0,0-6.36,6.36Zm0,23.78V148h-2v23.78Zm4.35,4.35a4.35,4.35,0,0,1-4.35-4.35h-2a6.35,6.35,0,0,0,6.36,6.35Zm19.26,0H140.44v2H159.7Zm-12.91,15.33,13.62-13.62L159,176.39,145.37,190Zm0,6.15a4.35,4.35,0,0,1,0-6.15L145.37,190a6.33,6.33,0,0,0,0,9Zm16.81,16.81-16.81-16.81L145.37,199l16.81,16.82Zm6.15,0a4.35,4.35,0,0,1-6.15,0l-1.42,1.42a6.36,6.36,0,0,0,9,0Zm13.62-13.61-13.62,13.61,1.42,1.42,13.62-13.62Zm1.71,20V201.48h-2v19.26Zm4.35,4.35a4.35,4.35,0,0,1-4.35-4.35h-2a6.35,6.35,0,0,0,6.35,6.36Zm23.78,0H189.43v2h23.78Zm4.35-4.35a4.35,4.35,0,0,1-4.35,4.35v2a6.35,6.35,0,0,0,6.35-6.36Zm0-19.26v19.26h2V201.48Zm15.33,12.91-13.61-13.61-1.43,1.41,13.62,13.62Zm6.15,0a4.35,4.35,0,0,1-6.15,0l-1.42,1.42a6.35,6.35,0,0,0,9,0Zm16.82-16.81L239,214.39l1.41,1.42L257.27,199Zm0-6.15a4.36,4.36,0,0,1,0,6.15l1.41,1.41a6.35,6.35,0,0,0,0-9Zm-13.62-13.62,13.62,13.62,1.41-1.42-13.61-13.62Zm20-1.71H243v2H262.2Zm4.35-4.35a4.35,4.35,0,0,1-4.35,4.35v2a6.35,6.35,0,0,0,6.36-6.35Zm0-23.78v23.78h2V148Zm-4.35-4.35a4.35,4.35,0,0,1,4.35,4.35h2a6.36,6.36,0,0,0-6.36-6.36Zm-19.25,0H262.2v-2H243Zm12.91-15.33-13.62,13.62,1.42,1.42,13.61-13.62Zm0-6.15a4.36,4.36,0,0,1,0,6.15l1.41,1.42a6.36,6.36,0,0,0,0-9ZM239,105.32l16.82,16.82,1.41-1.42-16.82-16.81Zm-6.15,0a4.36,4.36,0,0,1,6.15,0l1.41-1.41a6.33,6.33,0,0,0-9,0Zm-13.61,13.62,13.61-13.62-1.42-1.41-13.62,13.61Zm-1.72-20v19.26h2V99Zm4.84,60.89a20.86,20.86,0,0,1-20.87,20.86v2a22.87,22.87,0,0,0,22.87-22.87ZM201.53,139a20.87,20.87,0,0,1,20.87,20.87h2A22.87,22.87,0,0,0,201.53,137Zm-20.86,20.87A20.87,20.87,0,0,1,201.53,139v-2a22.87,22.87,0,0,0-22.87,22.87Zm20.86,20.86a20.86,20.86,0,0,1-20.86-20.86h-2a22.87,22.87,0,0,0,22.87,22.87Z"/></g><path class="cls-13" d="M227.16,99a5.35,5.35,0,0,0-5.35-5.35H198A5.35,5.35,0,0,0,192.68,99v19.26l-13.62-13.61a5.35,5.35,0,0,0-7.57,0l-16.82,16.81a5.37,5.37,0,0,0,0,7.57l13.62,13.62H149a5.34,5.34,0,0,0-5.35,5.35v23.78A5.34,5.34,0,0,0,149,177.1h19.25l-13.62,13.62a5.36,5.36,0,0,0,0,7.56l16.82,16.82a5.35,5.35,0,0,0,7.57,0l13.62-13.62v19.26a5.34,5.34,0,0,0,5.35,5.35h23.78a5.34,5.34,0,0,0,5.35-5.35V201.48l13.62,13.62a5.35,5.35,0,0,0,7.57,0l16.81-16.82a5.34,5.34,0,0,0,0-7.56L251.54,177.1H270.8a5.34,5.34,0,0,0,5.35-5.35V148a5.34,5.34,0,0,0-5.35-5.35H251.54L265.16,129a5.35,5.35,0,0,0,0-7.57l-16.81-16.81a5.35,5.35,0,0,0-7.57,0l-13.62,13.61Zm-17,82.76a21.87,21.87,0,1,0-21.87-21.87A21.87,21.87,0,0,0,210.13,181.73Z"/><g class="cls-14"><path d="M221.81,93.62v-1h0Zm-23.78,0v0Zm-5.35,24.61-.72.71,1.72,1.71v-2.42Zm-13.62-13.61.71-.71h0Zm-7.57,0,.71.7h0Zm-16.82,16.81.71.71h0Zm0,7.57-.7.71h0Zm13.62,13.62v1h2.42L169,141.91Zm0,34.48.71.71,1.72-1.71h-2.43Zm-13.62,13.62.71.71h0Zm0,7.56-.7.71h0Zm16.82,16.82.71-.71h0Zm7.57,0,.71.71h0Zm13.62-13.62h1v-2.42L192,200.78ZM198,226.09v1h0Zm23.78,0v-1h0Zm5.35-24.61.71-.7-1.71-1.72v2.42Zm38-10.76-.71.71h0ZM251.54,177.1v-1h-2.42l1.71,1.71Zm0-34.48-.71-.71-1.71,1.71h2.42ZM265.16,129l.71.71h0Zm0-7.57-.71.71h0Zm-16.81-16.81-.71.7h0Zm-7.57,0,.7.7h0Zm-13.62,13.61h-1v2.43l1.71-1.72Zm-5.35-23.6A4.34,4.34,0,0,1,226.16,99h2a6.35,6.35,0,0,0-6.35-6.35Zm-23.78,0h23.78v-2H198ZM193.68,99A4.34,4.34,0,0,1,198,94.63v-2A6.35,6.35,0,0,0,191.68,99Zm0,19.26V99h-2v19.26Zm-15.33-12.91L192,118.94l1.43-1.42-13.62-13.61Zm-6.15,0a4.36,4.36,0,0,1,6.15,0l1.42-1.41a6.34,6.34,0,0,0-9,0Zm-16.82,16.82,16.82-16.82-1.42-1.41L154,120.72Zm0,6.15a4.35,4.35,0,0,1,0-6.15L154,120.72a6.34,6.34,0,0,0,0,9ZM169,141.91l-13.62-13.62L154,129.71l13.61,13.62Zm-20,1.71h19.25v-2H149ZM144.69,148a4.35,4.35,0,0,1,4.35-4.35v-2a6.36,6.36,0,0,0-6.36,6.36Zm0,23.78V148h-2v23.78ZM149,176.1a4.35,4.35,0,0,1-4.35-4.35h-2A6.35,6.35,0,0,0,149,178.1Zm19.25,0H149v2h19.25Zm-12.91,15.33L169,177.81l-1.42-1.42L154,190Zm0,6.15a4.35,4.35,0,0,1,0-6.15L154,190a6.33,6.33,0,0,0,0,9Zm16.82,16.81-16.82-16.81L154,199l16.81,16.82Zm6.15,0a4.35,4.35,0,0,1-6.15,0l-1.42,1.42a6.36,6.36,0,0,0,9,0ZM192,200.78l-13.61,13.61,1.42,1.42,13.62-13.62Zm1.72,20V201.48h-2v19.26Zm4.35,4.35a4.35,4.35,0,0,1-4.35-4.35h-2A6.35,6.35,0,0,0,198,227.1Zm23.78,0H198v2h23.78Zm4.35-4.35a4.35,4.35,0,0,1-4.35,4.35v2a6.35,6.35,0,0,0,6.35-6.36Zm0-19.26v19.26h2V201.48Zm15.32,12.91-13.61-13.61-1.42,1.41,13.62,13.62Zm6.16,0a4.36,4.36,0,0,1-6.16,0l-1.41,1.42a6.35,6.35,0,0,0,9,0Zm16.81-16.81-16.81,16.81,1.41,1.42L265.87,199Zm0-6.15a4.35,4.35,0,0,1,0,6.15l1.42,1.41a6.35,6.35,0,0,0,0-9Zm-13.62-13.62,13.62,13.62,1.42-1.42-13.62-13.62Zm20-1.71H251.54v2H270.8Zm4.35-4.35a4.35,4.35,0,0,1-4.35,4.35v2a6.35,6.35,0,0,0,6.36-6.35Zm0-23.78v23.78h2V148Zm-4.35-4.35a4.35,4.35,0,0,1,4.35,4.35h2a6.36,6.36,0,0,0-6.36-6.36Zm-19.26,0H270.8v-2H251.54Zm12.91-15.33-13.62,13.62,1.42,1.42,13.62-13.62Zm0-6.15a4.35,4.35,0,0,1,0,6.15l1.42,1.42a6.36,6.36,0,0,0,0-9Zm-16.81-16.82,16.81,16.82,1.42-1.42-16.82-16.81Zm-6.16,0a4.38,4.38,0,0,1,6.16,0l1.41-1.41a6.33,6.33,0,0,0-9,0Zm-13.61,13.62,13.61-13.62-1.41-1.41-13.62,13.61Zm-1.71-20v19.26h2V99ZM231,159.86a20.86,20.86,0,0,1-20.86,20.86v2A22.87,22.87,0,0,0,233,159.86ZM210.13,139A20.87,20.87,0,0,1,231,159.86h2A22.87,22.87,0,0,0,210.13,137Zm-20.87,20.87A20.87,20.87,0,0,1,210.13,139v-2a22.86,22.86,0,0,0-22.87,22.87Zm20.87,20.86a20.86,20.86,0,0,1-20.87-20.86h-2a22.86,22.86,0,0,0,22.87,22.87Z"/></g><path class="cls-13" d="M216.81,100.77a5.36,5.36,0,0,1,5.35,5.35v8.4A46.79,46.79,0,0,1,233,118.91l5.86-5.86a5.35,5.35,0,0,1,7.57,0l10.15,10.15a5.37,5.37,0,0,1,0,7.57l-5.71,5.71a47.08,47.08,0,0,1,4.62,11h8.54a5.34,5.34,0,0,1,5.35,5.35v14.35a5.35,5.35,0,0,1-5.35,5.35h-8.51a46.41,46.41,0,0,1-4.59,11l5.74,5.74a5.34,5.34,0,0,1,0,7.56L246.57,207a5.35,5.35,0,0,1-7.57,0l-5.83-5.83a47.34,47.34,0,0,1-11,4.46V214a5.35,5.35,0,0,1-5.35,5.35H202.46a5.34,5.34,0,0,1-5.35-5.35v-8.66a47,47,0,0,1-10.57-4.51l-6.21,6.22a5.35,5.35,0,0,1-7.57,0l-10.15-10.15a5.37,5.37,0,0,1,0-7.57L169,183a47,47,0,0,1-4.28-10.46h-8.51a5.36,5.36,0,0,1-5.35-5.35V152.83a5.35,5.35,0,0,1,5.35-5.35h8.55A46.83,46.83,0,0,1,169,137l-6.33-6.33a5.35,5.35,0,0,1,0-7.57L172.86,113a5.36,5.36,0,0,1,7.56,0l6.24,6.24a47.17,47.17,0,0,1,10.45-4.43v-8.67a5.35,5.35,0,0,1,5.35-5.35Zm-6.68,90.42A31.12,31.12,0,1,0,179,160.07,31.12,31.12,0,0,0,210.13,191.19Z"/><g class="cls-15"><path d="M222.16,114.52h-1v.77l.75.2ZM233,118.91l-.48.88.66.37.53-.54Zm5.86-5.86-.71-.71h0Zm7.57,0-.71.71h0Zm10.15,10.15-.71.71h0Zm0,7.57-.71-.71h0Zm-5.71,5.71-.72-.71-.54.55.39.66Zm4.62,11-1,.27.21.73h.76Zm0,25.05v-1h-.76l-.21.73Zm-4.59,11-.87-.5-.38.66.54.55ZM239,207l.71-.71h0Zm-5.83-5.83.71-.71-.54-.54-.66.37Zm-11,4.46-.26-1-.75.2v.77Zm-25-.27h1v-.76l-.72-.21Zm-10.57-4.51.5-.86-.67-.39-.54.55Zm-6.21,6.22.71.71h0Zm-7.57,0,.71-.71h0Zm-10.15-10.15.71-.71h0Zm0-7.57.71.71h0ZM169,183l.71.71.54-.54-.37-.66Zm-4.28-10.46,1-.27-.2-.73h-.77Zm0-25.05v1h.76l.21-.73ZM169,137l.88.49.37-.67-.54-.53Zm-6.33-6.33.71-.71h0Zm0-7.57-.71-.71h0ZM172.86,113l.71.71h0Zm7.56,0,.71-.7h0Zm6.24,6.24-.71.71.54.55.67-.39Zm10.45-4.43.28,1,.72-.21v-.76Zm5.35-14v-1h0Zm20.7,5.35a6.35,6.35,0,0,0-6.35-6.35v2a4.34,4.34,0,0,1,4.34,4.34Zm0,8.4v-8.4h-2v8.4ZM233.53,118a47.2,47.2,0,0,0-11.12-4.49l-.51,1.94a45.52,45.52,0,0,1,10.66,4.3Zm4.66-5.7-5.85,5.86,1.41,1.42,5.86-5.86Zm9,0a6.36,6.36,0,0,0-9,0l1.42,1.42a4.36,4.36,0,0,1,6.15,0Zm10.15,10.15-10.15-10.15-1.42,1.42,10.15,10.15Zm0,9a6.36,6.36,0,0,0,0-9l-1.42,1.42a4.35,4.35,0,0,1,0,6.15Zm-5.71,5.71,5.71-5.71-1.42-1.42-5.72,5.71Zm4.87,10A47.6,47.6,0,0,0,251.77,136L250,137a45.72,45.72,0,0,1,4.52,10.77Zm7.58-.73h-8.54v2h8.54Zm6.36,6.35a6.35,6.35,0,0,0-6.36-6.35v2a4.35,4.35,0,0,1,4.35,4.35Zm0,14.35V152.83h-2v14.35Zm-6.36,6.35a6.35,6.35,0,0,0,6.36-6.35h-2a4.35,4.35,0,0,1-4.35,4.35Zm-8.51,0h8.51v-2h-8.51ZM251.84,184a47.67,47.67,0,0,0,4.69-11.25l-1.94-.53A45.71,45.71,0,0,1,250.1,183Zm5.58,4.53-5.74-5.74-1.42,1.42L256,190Zm0,9a6.35,6.35,0,0,0,0-9L256,190a4.35,4.35,0,0,1,0,6.15ZM247.28,207.7l10.14-10.15L256,196.13l-10.14,10.15Zm-9,0a6.36,6.36,0,0,0,9,0l-1.42-1.42a4.35,4.35,0,0,1-6.15,0Zm-5.83-5.83,5.83,5.83,1.42-1.42-5.83-5.83Zm-10.05,4.72A47.74,47.74,0,0,0,233.66,202l-1-1.75a45.39,45.39,0,0,1-10.78,4.37Zm.75,7.42v-8.39h-2V214Zm-6.35,6.36a6.35,6.35,0,0,0,6.35-6.36h-2a4.34,4.34,0,0,1-4.34,4.35Zm-14.35,0h14.35v-2H202.46ZM196.1,214a6.36,6.36,0,0,0,6.36,6.36v-2a4.35,4.35,0,0,1-4.35-4.35Zm0-8.66V214h2v-8.66ZM186,201.71a47.58,47.58,0,0,0,10.79,4.6l.56-1.93A46.12,46.12,0,0,1,187,200Zm-5,6.06,6.21-6.22-1.42-1.41-6.21,6.21Zm-9,0a6.36,6.36,0,0,0,9,0l-1.42-1.42a4.36,4.36,0,0,1-6.15,0ZM161.9,197.62l10.15,10.15,1.42-1.42L163.32,196.2Zm0-9a6.36,6.36,0,0,0,0,9l1.42-1.42a4.35,4.35,0,0,1,0-6.15Zm6.36-6.35-6.36,6.35,1.42,1.42,6.36-6.35Zm-4.53-9.49a47.46,47.46,0,0,0,4.37,10.69l1.75-1a45.26,45.26,0,0,1-4.19-10.24Zm-7.55.74h8.51v-2h-8.51Zm-6.35-6.35a6.35,6.35,0,0,0,6.35,6.35v-2a4.35,4.35,0,0,1-4.35-4.35Zm0-14.35v14.35h2V152.83Zm6.35-6.35a6.35,6.35,0,0,0-6.35,6.35h2a4.35,4.35,0,0,1,4.35-4.35Zm8.55,0h-8.55v2h8.55Zm3.43-9.94a48.33,48.33,0,0,0-4.4,10.67l1.94.54a45.08,45.08,0,0,1,4.22-10.23ZM162,131.41l6.33,6.33,1.42-1.42L163.42,130Zm0-9a6.36,6.36,0,0,0,0,9l1.42-1.42a4.35,4.35,0,0,1,0-6.15Zm10.15-10.14L162,122.42l1.42,1.42,10.15-10.15Zm9,0a6.33,6.33,0,0,0-9,0l1.42,1.41a4.35,4.35,0,0,1,6.14,0Zm6.24,6.23-6.24-6.23-1.42,1.41,6.24,6.24Zm9.46-4.68a48.2,48.2,0,0,0-10.67,4.52l1,1.74a45.85,45.85,0,0,1,10.23-4.33Zm-.73-7.71v8.67h2v-8.67Zm6.36-6.35a6.35,6.35,0,0,0-6.36,6.35h2a4.34,4.34,0,0,1,4.35-4.34Zm14.35,0H202.46v2h14.35Zm23.44,60.3a30.12,30.12,0,0,1-30.12,30.11v2a32.12,32.12,0,0,0,32.12-32.12ZM210.13,130a30.13,30.13,0,0,1,30.12,30.12h2A32.12,32.12,0,0,0,210.13,128ZM180,160.07A30.12,30.12,0,0,1,210.13,130v-2A32.12,32.12,0,0,0,178,160.07Zm30.12,30.11A30.11,30.11,0,0,1,180,160.07h-2a32.12,32.12,0,0,0,32.12,32.12Z"/></g><rect class="cls-6" x="53.33" y="141.61" width="13.04" height="44.47" rx="4.85"/><path d="M61.52,186.58H58.18a5.36,5.36,0,0,1-5.35-5.35V146.46a5.36,5.36,0,0,1,5.35-5.35h3.34a5.36,5.36,0,0,1,5.35,5.35v34.77A5.36,5.36,0,0,1,61.52,186.58Zm-3.34-44.47a4.35,4.35,0,0,0-4.35,4.35v34.77a4.35,4.35,0,0,0,4.35,4.35h3.34a4.35,4.35,0,0,0,4.35-4.35V146.46a4.35,4.35,0,0,0-4.35-4.35Z"/><rect class="cls-6" x="83.43" y="141.61" width="13.04" height="44.47" rx="4.85"/><path d="M91.62,186.58H88.27a5.36,5.36,0,0,1-5.35-5.35V146.46a5.36,5.36,0,0,1,5.35-5.35h3.35A5.36,5.36,0,0,1,97,146.46v34.77A5.36,5.36,0,0,1,91.62,186.58Zm-3.35-44.47a4.35,4.35,0,0,0-4.34,4.35v34.77a4.35,4.35,0,0,0,4.34,4.35h3.35A4.35,4.35,0,0,0,96,181.23V146.46a4.35,4.35,0,0,0-4.35-4.35Z"/><rect class="cls-6" x="114.19" y="141.61" width="13.04" height="44.47" rx="4.85"/><path d="M122.38,186.58H119a5.36,5.36,0,0,1-5.35-5.35V146.46a5.36,5.36,0,0,1,5.35-5.35h3.34a5.36,5.36,0,0,1,5.35,5.35v34.77A5.36,5.36,0,0,1,122.38,186.58ZM119,142.11a4.35,4.35,0,0,0-4.35,4.35v34.77a4.35,4.35,0,0,0,4.35,4.35h3.34a4.35,4.35,0,0,0,4.35-4.35V146.46a4.35,4.35,0,0,0-4.35-4.35Z"/></g></g></svg>