<svg xmlns="http://www.w3.org/2000/svg" xmlns:xlink="http://www.w3.org/1999/xlink" viewBox="0 0 276.86 165.18"><defs><style>.cls-1{fill:#fff;}.cls-1,.cls-4{fill-rule:evenodd;}.cls-2{fill:#a9a6ff;}.cls-3{fill:#c6f9b4;}.cls-5{mask:url(#mask);}.cls-6{fill:#ebff00;}.cls-7{fill:#f7cb45;}.cls-8{mask:url(#mask-2);}.cls-9{mask:url(#mask-3);}</style><mask id="mask" x="11.3" y="13.83" width="211.76" height="120.19" maskUnits="userSpaceOnUse"><g id="path-811-inside-113_170_3366" data-name="path-811-inside-113 170 3366"><path class="cls-1" d="M14.72,16.24h71a3.86,3.86,0,0,1,3.86,3.86A3.87,3.87,0,0,0,93.46,24H131.4a3.82,3.82,0,0,0,3-1.41H97.68a3.86,3.86,0,0,1-3.87-3.86A3.86,3.86,0,0,0,90,14.83H19.27A8,8,0,0,0,14.72,16.24Zm125.65,0a3.85,3.85,0,0,1,3-1.41H214a8,8,0,0,1,8,8v102a8,8,0,0,1-7.69,8,8,8,0,0,0,3.48-6.61v-102a8,8,0,0,0-8-8H140.37Z"/></g></mask><mask id="mask-2" x="86.6" y="12.37" width="71.56" height="71.56" maskUnits="userSpaceOnUse"><g id="path-819-inside-114_170_3366" data-name="path-819-inside-114 170 3366"><path class="cls-1" d="M108.34,16.32V40.79L93.85,28.26a34.7,34.7,0,1,0,14.49-11.94Z"/></g></mask><mask id="mask-3" x="90.62" y="23.07" width="46.81" height="46.81" maskUnits="userSpaceOnUse"><g id="path-824-inside-115_170_3366" data-name="path-824-inside-115 170 3366"><path class="cls-1" d="M108.34,24.8v16L97.47,31.38A22.4,22.4,0,1,0,114,24.07,22.61,22.61,0,0,0,108.34,24.8Z"/></g></mask></defs><g id="Layer_2" data-name="Layer 2"><g id="Layer_1-2" data-name="Layer 1"><path d="M224.2,153.81V18.72A10.2,10.2,0,0,0,214,8.53H10.7A10.2,10.2,0,0,0,.5,18.72V153.81A10.2,10.2,0,0,0,10.7,164H214A10.2,10.2,0,0,0,224.2,153.81Z"/><path d="M214,164.51H10.7A10.71,10.71,0,0,1,0,153.81V18.72A10.72,10.72,0,0,1,10.7,8H214a10.72,10.72,0,0,1,10.7,10.7V153.81A10.71,10.71,0,0,1,214,164.51ZM10.7,9A9.71,9.71,0,0,0,1,18.72V153.81a9.71,9.71,0,0,0,9.7,9.7H214a9.71,9.71,0,0,0,9.7-9.7V18.72A9.71,9.71,0,0,0,214,9Z"/><path class="cls-2" d="M228.88,153.81V18.72a10.2,10.2,0,0,0-10.2-10.19h-204A10.2,10.2,0,0,0,4.51,18.72V153.81A10.2,10.2,0,0,0,14.71,164h204A10.2,10.2,0,0,0,228.88,153.81Z"/><path d="M218.68,164.51h-204A10.71,10.71,0,0,1,4,153.81V18.72A10.72,10.72,0,0,1,14.71,8h204a10.72,10.72,0,0,1,10.7,10.7V153.81A10.71,10.71,0,0,1,218.68,164.51ZM14.71,9A9.7,9.7,0,0,0,5,18.72V153.81a9.71,9.71,0,0,0,9.69,9.7h204a9.71,9.71,0,0,0,9.7-9.7V18.72A9.71,9.71,0,0,0,218.68,9Z"/><path class="cls-3" d="M221.52,125.06V22.74A7.53,7.53,0,0,0,214,15.21H143.39A3.38,3.38,0,0,0,140,18.58,4.37,4.37,0,0,1,135.64,23H97.75a4.37,4.37,0,0,1-4.37-4.38A3.38,3.38,0,0,0,90,15.21H19.39a7.53,7.53,0,0,0-7.52,7.53V125.06a7.52,7.52,0,0,0,7.52,7.52H214A7.52,7.52,0,0,0,221.52,125.06Z"/><path d="M214,133.08H19.39a8,8,0,0,1-8-8V22.74a8,8,0,0,1,8-8H90a3.88,3.88,0,0,1,3.88,3.87,3.88,3.88,0,0,0,3.87,3.88h37.89a3.88,3.88,0,0,0,3.88-3.88,3.88,3.88,0,0,1,3.87-3.87H214a8,8,0,0,1,8,8V125.06A8,8,0,0,1,214,133.08ZM19.39,15.72a7,7,0,0,0-7,7V125.06a7,7,0,0,0,7,7H214a7,7,0,0,0,7-7V22.74a7,7,0,0,0-7-7H143.39a2.87,2.87,0,0,0-2.87,2.86,4.89,4.89,0,0,1-4.88,4.89H97.75a4.88,4.88,0,0,1-4.87-4.89A2.87,2.87,0,0,0,90,15.72Z"/><path class="cls-4" d="M14.72,16.24h71a3.86,3.86,0,0,1,3.86,3.86A3.87,3.87,0,0,0,93.46,24H131.4a3.82,3.82,0,0,0,3-1.41H97.68a3.86,3.86,0,0,1-3.87-3.86A3.86,3.86,0,0,0,90,14.83H19.27A8,8,0,0,0,14.72,16.24Zm125.65,0a3.85,3.85,0,0,1,3-1.41H214a8,8,0,0,1,8,8v102a8,8,0,0,1-7.69,8,8,8,0,0,0,3.48-6.61v-102a8,8,0,0,0-8-8H140.37Z"/><g class="cls-5"><path d="M15.05,16.24v-1h0Zm-.33,0-.57-.83-2.85,2,3.46-.14Zm45,0v0Zm26,0v-1h0ZM93.46,24V23h0Zm19,0V23h0Zm19,0v1h0Zm3-1.41.78.64,1.35-1.64h-2.13Zm-17.73,0v-1h0Zm-19,0v-1h0ZM90,14.83v1h0Zm-26,0v-1h0Zm-44.68,0v0Zm124.08,0v0Zm-3,1.41-.78-.64-1.35,1.64h2.13Zm29-1.41v0Zm44.68,0v0Zm.33,118.05-.57-.83-2.86,2,3.47-.14ZM209.81,16.24v0Zm-44.68,0v0Zm-150.08-1h-.37l.08,2h.29Zm44.68,0H15.05v2H59.73Zm26,0h-26v2h26ZM90.6,20.1a4.88,4.88,0,0,0-4.87-4.87v2a2.86,2.86,0,0,1,2.86,2.86ZM93.46,23A2.86,2.86,0,0,1,90.6,20.1h-2A4.87,4.87,0,0,0,93.46,25Zm19,0h-19v2h19Zm19,0h-19v2h19Zm2.21-1a2.84,2.84,0,0,1-2.21,1v2a4.88,4.88,0,0,0,3.76-1.77Zm.77-.36H116.65v2h17.73Zm-17.73,0h-19v2h19Zm-19,0a2.86,2.86,0,0,1-2.87-2.86h-2a4.87,4.87,0,0,0,4.87,4.87ZM94.81,18.7A4.87,4.87,0,0,0,90,13.83v2a2.86,2.86,0,0,1,2.86,2.86ZM90,13.83H64v2H90Zm-26,0H19.27v2H64Zm-44.68,0a9.1,9.1,0,0,0-5.12,1.58l1.14,1.66a7,7,0,0,1,4-1.23Zm124.08,0a4.85,4.85,0,0,0-3.76,1.77l1.55,1.27a2.88,2.88,0,0,1,2.21-1Zm26,0h-26v2h26Zm44.68,0H169.35v2H214Zm9,9a9,9,0,0,0-9-9v2a7,7,0,0,1,7,7Zm0,102v-102h-2v102Zm-8.65,9a9,9,0,0,0,8.65-9h-2a7,7,0,0,1-6.73,7Zm.53-.18a9,9,0,0,0,3.91-7.43h-2a7,7,0,0,1-3,5.78Zm3.91-7.43v-102h-2v102Zm0-102a9,9,0,0,0-9-9v2a7,7,0,0,1,7,7Zm-9-9H165.13v2h44.68Zm-44.68,0H140.37v2h24.76Z"/></g><path d="M272.35,159.83v-6.69a4.86,4.86,0,0,0-4.85-4.85H5.35A4.85,4.85,0,0,0,.5,153.14v6.69a4.85,4.85,0,0,0,4.85,4.85H267.5A4.85,4.85,0,0,0,272.35,159.83Z"/><path d="M267.5,165.18H5.35A5.36,5.36,0,0,1,0,159.83v-6.69a5.36,5.36,0,0,1,5.35-5.35H267.5a5.36,5.36,0,0,1,5.35,5.35v6.69A5.36,5.36,0,0,1,267.5,165.18ZM5.35,148.8A4.35,4.35,0,0,0,1,153.14v6.69a4.35,4.35,0,0,0,4.35,4.35H267.5a4.35,4.35,0,0,0,4.35-4.35v-6.69a4.35,4.35,0,0,0-4.35-4.34Z"/><path d="M276.36,158.49v-5.35a4.85,4.85,0,0,0-4.85-4.85H4.51v10.2a4.85,4.85,0,0,0,4.85,4.85H271.51A4.85,4.85,0,0,0,276.36,158.49Z"/><path d="M271.51,163.84H9.36A5.36,5.36,0,0,1,4,158.49v-10.7h267.5a5.36,5.36,0,0,1,5.35,5.35v5.35A5.36,5.36,0,0,1,271.51,163.84ZM5,148.8v9.69a4.35,4.35,0,0,0,4.34,4.35H271.51a4.35,4.35,0,0,0,4.35-4.35v-5.35a4.35,4.35,0,0,0-4.35-4.34Z"/><path class="cls-6" d="M10.07,155.82h0A2.84,2.84,0,0,1,12.91,153H25.62a2.84,2.84,0,0,1,2.84,2.84h0a2.84,2.84,0,0,1-2.84,2.84H12.91A2.84,2.84,0,0,1,10.07,155.82Z"/><path d="M25.62,159.16H12.91a3.35,3.35,0,0,1,0-6.69H25.62a3.35,3.35,0,0,1,0,6.69Zm-12.71-5.68a2.34,2.34,0,1,0,0,4.68H25.62a2.34,2.34,0,0,0,0-4.68Z"/><path class="cls-7" d="M276.36,159.83v-6.69a4.85,4.85,0,0,0-4.85-4.85H197.75a4.88,4.88,0,0,0-3.35,1.35l-2,1.9a5.86,5.86,0,0,1-4,1.62H149.19a5.8,5.8,0,0,1-3.76-1.37l-2.82-2.36a4.89,4.89,0,0,0-3.12-1.14H65.54a4.85,4.85,0,0,0-4.85,4.85v6.69a4.85,4.85,0,0,0,4.85,4.85h206A4.85,4.85,0,0,0,276.36,159.83Z"/><path d="M271.51,165.18h-206a5.36,5.36,0,0,1-5.35-5.35v-6.69a5.36,5.36,0,0,1,5.35-5.35h74a5.34,5.34,0,0,1,3.44,1.26l2.82,2.36a5.33,5.33,0,0,0,3.44,1.25h39.18a5.31,5.31,0,0,0,3.69-1.48l2-1.9a5.31,5.31,0,0,1,3.69-1.49h73.76a5.36,5.36,0,0,1,5.35,5.35v6.69A5.36,5.36,0,0,1,271.51,165.18Zm-206-16.38a4.35,4.35,0,0,0-4.35,4.34v6.69a4.35,4.35,0,0,0,4.35,4.35h206a4.35,4.35,0,0,0,4.35-4.35v-6.69a4.35,4.35,0,0,0-4.35-4.34H197.75a4.3,4.3,0,0,0-3,1.2l-2,1.91a6.34,6.34,0,0,1-4.38,1.75H149.19a6.25,6.25,0,0,1-4.08-1.49l-2.82-2.35a4.37,4.37,0,0,0-2.8-1Z"/><path d="M189,55.27a157.91,157.91,0,0,1-24.71,25.9c-13.4,11.06-31,21.32-50.26,21.32S77.16,92.23,63.77,81.17a157.68,157.68,0,0,1-24.72-25.9.71.71,0,0,1,0-.87A157.36,157.36,0,0,1,63.77,28.51C77.16,17.44,94.77,7.19,114,7.19s36.86,10.25,50.26,21.32A157.59,157.59,0,0,1,189,54.4.71.71,0,0,1,189,55.27Z"/><path d="M114,103c-16.34,0-33.36-7.21-50.57-21.44a157.79,157.79,0,0,1-24.8-26,1.2,1.2,0,0,1,0-1.46,157.29,157.29,0,0,1,24.8-26C80.66,13.9,97.68,6.69,114,6.69s33.36,7.21,50.58,21.43a158,158,0,0,1,24.79,26,1.22,1.22,0,0,1,0,1.47h0a158,158,0,0,1-24.79,26C147.38,95.78,130.37,103,114,103Zm0-95.3c-16.11,0-32.91,7.13-49.94,21.21A156.46,156.46,0,0,0,39.46,54.7a.21.21,0,0,0,0,.28,157.29,157.29,0,0,0,24.62,25.8C81.11,94.85,97.91,102,114,102s32.91-7.13,49.94-21.2A157.33,157.33,0,0,0,188.58,55a.21.21,0,0,0,0-.28A156,156,0,0,0,164,28.9C146.93,14.82,130.13,7.69,114,7.69Z"/><path class="cls-7" d="M197,48.58a157,157,0,0,1-24.71,25.9c-13.39,11.07-31,21.32-50.25,21.32S85.18,85.55,71.79,74.48a157,157,0,0,1-24.71-25.9.69.69,0,0,1,0-.86,157,157,0,0,1,24.71-25.9C85.18,10.75,102.79.5,122.05.5s36.86,10.25,50.25,21.32A157,157,0,0,1,197,47.72.69.69,0,0,1,197,48.58Z"/><path d="M122.05,96.3c-16.35,0-33.37-7.21-50.58-21.44a158,158,0,0,1-24.79-26,1.19,1.19,0,0,1,0-1.46,158.63,158.63,0,0,1,24.8-26C88.68,7.21,105.7,0,122.05,0s33.36,7.21,50.57,21.43a158.16,158.16,0,0,1,24.8,26,1.2,1.2,0,0,1,0,1.46h0a158.25,158.25,0,0,1-24.8,26C155.41,89.09,138.39,96.3,122.05,96.3Zm0-95.3C105.94,1,89.14,8.14,72.11,22.21A157.51,157.51,0,0,0,47.48,48a.21.21,0,0,0,0,.28,157.51,157.51,0,0,0,24.63,25.8c17,14.07,33.83,21.21,49.94,21.21S155,88.16,172,74.09a156.68,156.68,0,0,0,24.63-25.8.21.21,0,0,0,0-.28A157.51,157.51,0,0,0,172,22.21C155,8.14,138.15,1,122.05,1Z"/><path class="cls-4" d="M108.34,16.32V40.79L93.85,28.26a34.7,34.7,0,1,0,14.49-11.94Z"/><g class="cls-8"><path d="M108.34,40.79l-.66.76L109.34,43v-2.2Zm0-24.47-.41-.91-.6.27v.64ZM93.85,28.26l.66-.76-.85-.73-.63.92Zm15.49,12.53V16.32h-2V40.79ZM93.2,29l14.48,12.53L109,40,94.51,27.5ZM88.61,48.15a33.62,33.62,0,0,1,6.06-19.31L93,27.69A35.59,35.59,0,0,0,86.6,48.15Zm33.77,33.77A33.77,33.77,0,0,1,88.61,48.15h-2a35.78,35.78,0,0,0,35.78,35.78Zm33.77-33.77a33.77,33.77,0,0,1-33.77,33.77v2a35.78,35.78,0,0,0,35.78-35.78ZM122.38,14.38a33.77,33.77,0,0,1,33.77,33.77h2a35.78,35.78,0,0,0-35.78-35.78Zm-13.64,2.87a33.56,33.56,0,0,1,13.64-2.87v-2a35.72,35.72,0,0,0-14.45,3Z"/></g><path d="M137.76,114.86H124.14a.51.51,0,0,1,0-1h13.62a.51.51,0,0,1,0,1Zm-22.9,0H96.3a.51.51,0,0,1,0-1h18.56a.51.51,0,0,1,0,1Z"/><path class="cls-1" d="M108.34,24.8v16L97.47,31.38A22.4,22.4,0,1,0,114,24.07,22.61,22.61,0,0,0,108.34,24.8Z"/><g class="cls-9"><path d="M108.34,40.79l-.66.76L109.34,43v-2.2Zm0-16-.26-1-.75.2v.77ZM97.47,31.38l.66-.76L97.39,30l-.66.72Zm11.87,9.41v-16h-2v16ZM96.81,32.13l10.87,9.42L109,40,98.13,30.62ZM92.62,46.48a21.36,21.36,0,0,1,5.59-14.43L96.73,30.7a23.36,23.36,0,0,0-6.11,15.78ZM114,67.88a21.4,21.4,0,0,1-21.4-21.4h-2A23.4,23.4,0,0,0,114,69.88Zm21.4-21.4A21.4,21.4,0,0,1,114,67.88v2a23.41,23.41,0,0,0,23.41-23.4ZM114,25.08a21.4,21.4,0,0,1,21.4,21.4h2A23.41,23.41,0,0,0,114,23.07Zm-5.43.69a21.55,21.55,0,0,1,5.43-.69v-2a23.31,23.31,0,0,0-5.94.76Z"/></g></g></g></svg>